<?xml version="1.0" standalone="no"?><!DOCTYPE svg PUBLIC "-//W3C//DTD SVG 1.1//EN" "http://www.w3.org/Graphics/SVG/1.1/DTD/svg11.dtd"><svg xmlns="http://www.w3.org/2000/svg" width="1200" height="800" viewBox="0 0 1200 800" style="font-family: &quot;Helvetica Neue&quot;, Helvetica, Arial, sans-serif;"><g class="sankey" transform="translate(170,50)"><g class="groups"/><g class="links"><g class="link" style="opacity: 0.8;"><path d="M620.3333333333334,367.2727272727273 A391.5157292766115 391.5157292766115 0.14522568693133397 0 0 676.9918236104709,363.1513471424507 L871.5192611741112,334.7006716121458 A397.19754745842965 397.19754745842965 0.14522568693133397 0 1 929,330.51948051948045 L929,336.2012987012986 A391.5157292766115 391.5157292766115 0.14522568693133397 0 0 872.3415097228625,340.3226788315752 L677.8140721592222,368.7733543618801 A397.19754745842965 397.19754745842965 0.14522568693133397 0 1 620.3333333333334,372.95454545454544 Z" style="fill: rgb(152, 223, 138);"/><title>CD152-inhibition → Skin
6
1.00</title></g><g class="link" style="opacity: 0.8;"><path d="M620.3333333333334,297.5 A997.1590909090909 997.1590909090909 0.02001909109188804 0 0 640.2942186776033,297.30019393604135 L908.9253774173011,291.9217237808287 A1002.8409090909091 1002.8409090909091 0.02001909109188804 0 1 929,291.72077922077915 L929,297.4025974025973 A997.1590909090909 997.1590909090909 0.02001909109188804 0 0 909.03911465573,297.6024034665559 L640.4079559160323,302.9808736217686 A1002.8409090909091 1002.8409090909091 0.02001909109188804 0 1 620.3333333333334,303.18181818181813 Z" style="fill: rgb(140, 86, 75);"/><title>mTOR-inhibition → Pancreas
31
1.00</title></g><g class="link" style="opacity: 0.8;"><path d="M620.3333333333334,280.45454545454544 A124.84961449808256 124.84961449808256 0.49819575839976693 0 0 679.9916464367907,265.27859196023206 L866.6266790092494,163.7562108581821 A130.53143267990075 130.53143267990075 0.49819575839976693 0 1 929,147.88961038961043 L929,153.5714285714286 A124.84961449808256 124.84961449808256 0.49819575839976693 0 0 869.3416868965427,168.747382065742 L682.706654324084,270.26976316779195 A130.53143267990075 130.53143267990075 0.49819575839976693 0 1 620.3333333333334,286.13636363636357 Z" style="fill: rgb(140, 86, 75);"/><title>mTOR-inhibition → Breast
31
1.00</title></g><g class="link" style="opacity: 0.8;"><path d="M620.3333333333334,303.1818181818182 A106.75905859571468 106.75905859571468 0.6767138058446863 0 1 687.1895260429402,326.70779388005053 L865.70195716827,470.09622887380556 A101.07724041389649 101.07724041389649 0.6767138058446863 0 0 929,492.3701298701298 L929,498.05194805194793 A106.75905859571468 106.75905859571468 0.6767138058446863 0 1 862.1438072903933,474.5259723537156 L683.6313761650634,331.13753735996056 A101.07724041389649 101.07724041389649 0.6767138058446863 0 0 620.3333333333334,308.8636363636363 Z" style="fill: rgb(140, 86, 75);"/><title>mTOR-inhibition → Brain
31
1.00</title></g><g class="link" style="opacity: 0.8;"><path d="M620.3333333333334,216.36363636363635 A406.6601034151033 406.6601034151033 0.1397556921990457 0 0 676.9815708803852,212.39872399555225 L871.5602784018702,185.02680327155142 A412.34192159692145 412.34192159692145 0.1397556921990457 0 1 929,181.00649350649348 L929,186.68831168831167 A406.6601034151033 406.6601034151033 0.1397556921990457 0 0 872.3517624529482,190.65322405639577 L677.7730549314632,218.0251447803966 A412.34192159692145 412.34192159692145 0.1397556921990457 0 1 620.3333333333334,222.04545454545453 Z" style="fill: rgb(197, 176, 213);"/><title>c/b-RAF-inhibition, VEGFR2/3-inhibition, PDGFB-inhibition, c-RET-inhibition, CD117/135-inhibition → Thyroid
30
1.00</title></g><g class="link" style="opacity: 0.8;"><path d="M1,534.090909090909 A156.5535328005327 156.5535328005327 0.3966570314493305 0 1 61.482436940928764,546.2460919908489 L251.37932685158492,625.785966769242 A150.87171461871452 150.87171461871452 0.3966570314493305 0 0 309.6666666666667,637.5 L309.6666666666667,643.1818181818182 A156.5535328005327 156.5535328005327 0.3966570314493305 0 1 249.18422972573794,631.0266352818784 L59.28733981508178,551.4867605034852 A150.87171461871452 150.87171461871452 0.3966570314493305 0 0 1,539.7727272727273 Z" style="fill: rgb(31, 119, 180);"/><title>Antineoplastic → Anthracyclines
1
1.00</title></g><g class="link" style="opacity: 0.8;"><path d="M1,210.22727272727272 A467.55079573512864 467.55079573512864 0.12139973806756021 0 0 57.621225002169076,206.78614449736392 L252.35736347357437,183.02840040271204 A473.2326139169468 473.2326139169468 0.12139973806756021 0 1 309.6666666666667,179.5454545454545 L309.6666666666667,185.2272727272727 A467.55079573512864 467.55079573512864 0.12139973806756021 0 0 253.04544166449762,188.6684009571815 L58.3093031930923,212.42614505183337 A473.2326139169468 473.2326139169468 0.12139973806756021 0 1 1,215.9090909090909 Z" style="fill: rgb(31, 119, 180);"/><title>Antineoplastic → Parp inhibitor
1
1.00</title></g><g class="link" style="opacity: 0.8;"><path d="M1,75 A0 0 0 0 0 1,75 L309.6666666666667,75 A0 0 0 0 0 309.6666666666667,75 L309.6666666666667,80.68181818181819 A0 0 0 0 0 309.6666666666667,80.68181818181819 L1,80.68181818181819 A0 0 0 0 0 1,80.68181818181819 Z" style="fill: rgb(174, 199, 232);"/><title>Endocrine → Anti-androgens
2
1.00</title></g><g class="link" style="opacity: 0.8;"><path d="M1,86.36363636363637 A358.31934680134714 358.31934680134714 0.16147481772605254 0 1 58.60843936311689,91.02492513959345 L252.97171601444822,122.68535188033252 A352.637528619529 352.637528619529 0.16147481772605254 0 0 309.6666666666667,127.27272727272725 L309.6666666666667,132.95454545454544 A358.31934680134714 358.31934680134714 0.16147481772605254 0 1 252.05822730354978,128.29325667858836 L57.694950652218466,96.6328299378493 A352.637528619529 352.637528619529 0.16147481772605254 0 0 1,92.04545454545456 Z" style="fill: rgb(174, 199, 232);"/><title>Endocrine → Anti-estrogens
2
1.00</title></g><g class="link" style="opacity: 0.8;"><path d="M1,92.04545454545456 A244.94017059483747 244.94017059483747 0.24056263809731027 0 1 59.356775326550384,99.09873196516436 L252.66357941127853,146.51942666800912 A239.25835241301928 239.25835241301928 0.24056263809731027 0 0 309.6666666666667,153.40909090909088 L309.6666666666667,159.09090909090907 A244.94017059483747 244.94017059483747 0.24056263809731027 0 1 251.30989134011628,152.03763167119925 L58.00308725538816,104.6169369683545 A239.25835241301928 239.25835241301928 0.24056263809731027 0 0 1,97.72727272727275 Z" style="fill: rgb(174, 199, 232);"/><title>Endocrine → Gonadotropin analogue
2
1.00</title></g><g class="link" style="opacity: 0.8;"><path d="M1,80.68181818181819 A704.5932390572397 704.5932390572397 0.08107405264449463 0 1 58.06167030744176,82.99619645304698 L253.06513991137075,98.84064844024279 A698.9114208754214 698.9114208754214 0.08107405264449463 0 0 309.6666666666667,101.13636363636363 L309.6666666666667,106.81818181818181 A704.5932390572397 704.5932390572397 0.08107405264449463 0 1 252.6049963592249,104.50380354695302 L57.60152675529592,88.65935155975721 A698.9114208754214 698.9114208754214 0.08107405264449463 0 0 1,86.36363636363637 Z" style="fill: rgb(174, 199, 232);"/><title>Endocrine → Other antagonist
2
1.00</title></g><g class="link" style="opacity: 0.8;"><path d="M620.3333333333334,222.04545454545453 A741.0805900272558 741.0805900272558 0.07645308938962647 0 0 676.9360551110624,219.8806735265719 L871.96330872143,204.941118518273 A746.762408209074 746.762408209074 0.07645308938962647 0 1 929,202.75974025974023 L929,208.4415584415584 A741.0805900272558 741.0805900272558 0.07645308938962647 0 0 872.397278222271,210.60633946044103 L677.3700246119033,225.54589446873996 A746.762408209074 746.762408209074 0.07645308938962647 0 1 620.3333333333334,227.72727272727272 Z" style="fill: rgb(197, 176, 213);"/><title>c/b-RAF-inhibition, VEGFR2/3-inhibition, PDGFB-inhibition, c-RET-inhibition, CD117/135-inhibition → Liver
30
1.00</title></g><g class="link" style="opacity: 0.8;"><path d="M310.6666666666667,637.5 A704.5932390572416 704.5932390572416 0.08107405264449241 0 1 367.72833697410704,639.8143782712286 L562.7318065780388,655.6588302584247 A698.9114208754233 698.9114208754233 0.08107405264449241 0 0 619.3333333333334,657.9545454545454 L619.3333333333334,663.6363636363636 A704.5932390572416 704.5932390572416 0.08107405264449241 0 1 562.271663025893,661.321985365135 L367.2681934219612,645.4775333779389 A698.9114208754233 698.9114208754233 0.08107405264449241 0 0 310.6666666666667,643.1818181818182 Z" style="fill: rgb(31, 119, 180);"/><title>Anthracyclines → TOP2-inhibition
1
1.00</title></g><g class="link" style="opacity: 0.8;"><path d="M310.6666666666667,75 A0 0 0 0 0 310.6666666666667,75 L619.3333333333334,75 A0 0 0 0 0 619.3333333333334,75 L619.3333333333334,80.68181818181819 A0 0 0 0 0 619.3333333333334,80.68181818181819 L310.6666666666667,80.68181818181819 A0 0 0 0 0 310.6666666666667,80.68181818181819 Z" style="fill: rgb(174, 199, 232);"/><title>Anti-androgens → AR-inhibition
2
1.00</title></g><g class="link" style="opacity: 0.8;"><path d="M310.6666666666667,127.27272727272725 A997.1590909090909 997.1590909090909 0.048971094644495894 0 0 359.47912334366094,126.07728864006414 L570.2427430000599,115.74770479425815 A1002.8409090909091 1002.8409090909091 0.048971094644495894 0 1 619.3333333333334,114.54545454545452 L619.3333333333334,120.2272727272727 A997.1590909090909 997.1590909090909 0.048971094644495894 0 0 570.520876656339,121.4227113599358 L359.75725699994007,131.7522952057418 A1002.8409090909091 1002.8409090909091 0.048971094644495894 0 1 310.6666666666667,132.95454545454544 Z" style="fill: rgb(255, 127, 14);"/><title>Anti-estrogens → ERA/B-inhibition
3
1.00</title></g><g class="link" style="opacity: 0.8;"><path d="M310.6666666666667,153.40909090909088 A1002.8409090909091 1002.8409090909091 0.022211542284191976 0 1 332.9394784262026,153.65645782919324 L597.1867131418402,159.5267618649201 A997.1590909090909 997.1590909090909 0.022211542284191976 0 0 619.3333333333334,159.77272727272725 L619.3333333333334,165.45454545454544 A1002.8409090909091 1002.8409090909091 0.022211542284191976 0 1 597.0605215737975,165.20717853444307 L332.81328685815987,159.3368744987162 A997.1590909090909 997.1590909090909 0.022211542284191976 0 0 310.6666666666667,159.09090909090907 Z" style="fill: rgb(255, 187, 120);"/><title>Gonadotropin analogue → GnRH-promotion, LHRH-promotion
4
1.00</title></g><g class="link" style="opacity: 0.8;"><path d="M620.3333333333334,227.72727272727272 A997.1590909090909 997.1590909090909 0.010790253803985461 0 0 631.0927242191359,227.6692238848377 L918.179302043623,224.57136661805697 A1002.8409090909091 1002.8409090909091 0.010790253803985461 0 1 929,224.51298701298697 L929,230.19480519480516 A997.1590909090909 997.1590909090909 0.010790253803985461 0 0 918.2406091141975,230.25285403724018 L631.1540312897104,233.3507113040209 A1002.8409090909091 1002.8409090909091 0.010790253803985461 0 1 620.3333333333334,233.4090909090909 Z" style="fill: rgb(197, 176, 213);"/><title>c/b-RAF-inhibition, VEGFR2/3-inhibition, PDGFB-inhibition, c-RET-inhibition, CD117/135-inhibition → Kidney
30
1.00</title></g><g class="link" style="opacity: 0.8;"><path d="M620.3333333333334,203.18181818181816 A514.3574913974912 514.3574913974912 0.11028379023253554 0 0 676.9437098920371,200.0570470034088 L871.7642804217227,178.48396409443396 A520.0393095793095 520.0393095793095 0.11028379023253554 0 1 929,175.3246753246753 L929,181.00649350649348 A514.3574913974912 514.3574913974912 0.11028379023253554 0 0 872.3896234412963,184.13126468490285 L677.5690529116107,205.70434759387769 A520.0393095793095 520.0393095793095 0.11028379023253554 0 1 620.3333333333334,208.86363636363635 Z" style="fill: rgb(148, 103, 189);"/><title>c-MET-inhibition, VEGFR1/2/3-inhibition → Thyroid
29
1.00</title></g><g class="link" style="opacity: 0.8;"><path d="M620.3333333333334,631.590909090909 A502.7687931051487 502.7687931051487 0.11284078566339062 0 0 676.9458386649098,628.3934157623689 L871.7477135870946,606.318043963459 A508.4506112869668 508.4506112869668 0.11284078566339062 0 1 929,603.0844155844155 L929,608.7662337662338 A502.7687931051487 502.7687931051487 0.11284078566339062 0 0 872.3874946684235,611.9637270947738 L677.5856197462388,634.0390988936838 A508.4506112869668 508.4506112869668 0.11284078566339062 0 1 620.3333333333334,637.2727272727273 Z" style="fill: rgb(255, 152, 150);"/><title>VEGFR2-inhibition → Stomach
28
1.00</title></g><g class="link" style="opacity: 0.8;"><path d="M620.3333333333334,620.2272727272727 A99.90454616421827 99.90454616421827 0.6910115797071505 0 0 684.0042023003778,597.3093409142512 L861.6733551108526,450.37016917100516 A105.64074295721029 105.64074295721029 0.6910115797071505 0 1 929,426.1363636363636 L929,431.81818181818176 A99.9589247753921 99.9589247753921 0.6910115797071505 0 0 865.2944746178115,454.7485879914884 L687.6253218073366,601.6877597347345 A105.58636434603646 105.58636434603646 0.6910115797071505 0 1 620.3333333333334,625.909090909091 Z" style="fill: rgb(255, 152, 150);"/><title>VEGFR2-inhibition → Lung
28
1.00</title></g><g class="link" style="opacity: 0.8;"><path d="M620.3333333333334,625.9090909090909 A261.01812115433376 261.01812115433376 0.21975982610114464 0 0 677.2340391306292,619.6315618297306 L870.8606849317173,576.3817102159669 A266.6999393361519 266.6999393361519 0.21975982610114464 0 1 929,569.9675324675324 L929,575.6493506493506 A261.01812115433376 261.01812115433376 0.21975982610114464 0 0 872.0992942027042,581.9268797287109 L678.4726484016161,625.1767313424746 A266.6999393361519 266.6999393361519 0.21975982610114464 0 1 620.3333333333334,631.5909090909091 Z" style="fill: rgb(255, 152, 150);"/><title>VEGFR2-inhibition → Colon
28
1.00</title></g><g class="link" style="opacity: 0.8;"><path d="M310.6666666666667,334.0909090909091 A720.4042424242425 720.4042424242425 0.07927726689754033 0 1 367.71854147382055,336.35355260597015 L562.7314258646495,351.84611101359775 A714.7224242424243 714.7224242424243 0.07927726689754033 0 0 619.3333333333334,354.0909090909091 L619.3333333333334,359.77272727272725 A720.4042424242425 720.4042424242425 0.07927726689754033 0 1 562.2814585261794,357.5100837576662 L367.2685741353506,342.0175253500386 A714.7224242424243 714.7224242424243 0.07927726689754033 0 0 310.6666666666667,339.77272727272725 Z" style="fill: rgb(44, 160, 44);"/><title>Kinase inhibitors → BRAF-inhibition
5
1.00</title></g><g class="link" style="opacity: 0.8;"><path d="M310.6666666666667,379.5454545454546 A96.50809625821194 96.50809625821194 0.8763528706612366 0 1 384.82445150469965,414.2924336562224 L549.5415143215121,612.0714419983252 A90.82627807639375 90.82627807639375 0.8763528706612366 0 0 619.3333333333334,644.7727272727273 L619.3333333333334,650.4545454545455 A96.50809625821194 96.50809625821194 0.8763528706612366 0 1 545.1755484953005,615.7075663437776 L380.458485678488,417.92855800167484 A90.82627807639375 90.82627807639375 0.8763528706612366 0 0 310.6666666666667,385.22727272727275 Z" style="fill: rgb(44, 160, 44);"/><title>Kinase inhibitors → Bcr-Abl-inhibition
5
1.00</title></g><g class="link" style="opacity: 0.8;"><path d="M310.6666666666667,248.86363636363632 A116.1740344119158 116.1740344119158 0.5477547511307566 0 0 371.1668257463117,231.8669028974442 L555.874243666473,119.19164292565051 A121.85585259373399 121.85585259373399 0.5477547511307566 0 1 619.3333333333334,101.36363636363635 L619.3333333333334,107.04545454545453 A116.1740344119158 116.1740344119158 0.5477547511307566 0 0 558.8331742536883,124.04218801164666 L374.12575633352697,236.71744798344034 A121.85585259373399 121.85585259373399 0.5477547511307566 0 1 310.6666666666667,254.5454545454545 Z" style="fill: rgb(44, 160, 44);"/><title>Kinase inhibitors → CDK4/6-inhibition
5
1.00</title></g><g class="link" style="opacity: 0.8;"><path d="M310.6666666666667,254.54545454545448 A128.8728098186163 128.8728098186163 0.4786716579353518 0 0 370.02555192149316,240.06112252005647 L557.357399579541,142.85019827111134 A134.5546280004345 134.5546280004345 0.4786716579353518 0 1 619.3333333333334,127.72727272727269 L619.3333333333334,133.40909090909088 A128.8728098186163 128.8728098186163 0.4786716579353518 0 0 559.974448078507,147.89342293448888 L372.6426004204591,245.10434718343402 A134.5546280004345 134.5546280004345 0.4786716579353518 0 1 310.6666666666667,260.22727272727263 Z" style="fill: rgb(44, 160, 44);"/><title>Kinase inhibitors → ErbB1/2-inhibition
5
1.00</title></g><g class="link" style="opacity: 0.8;"><path d="M310.6666666666667,373.86363636363643 A169.848801518838 169.848801518838 0.360477506746252 0 1 370.5759210979941,384.7800729882588 L561.4281760050952,456.7214696045639 A164.16698333701981 164.16698333701981 0.360477506746252 0 0 619.3333333333334,467.27272727272737 L619.3333333333334,472.9545454545455 A169.848801518838 169.848801518838 0.360477506746252 0 1 559.424078902006,462.03810882992315 L368.57182399490483,390.09671221361805 A164.16698333701981 164.16698333701981 0.360477506746252 0 0 310.6666666666667,379.54545454545456 Z" style="fill: rgb(44, 160, 44);"/><title>Kinase inhibitors → ErbB1/2/4-inhibition
5
1.00</title></g><g class="link" style="opacity: 0.8;"><path d="M310.6666666666667,339.7727272727273 A360.2368875909937 360.2368875909937 0.1605875529318772 0 1 368.2679064242602,344.4077133507588 L562.6406062312277,375.8926644611896 A354.5550694091756 354.5550694091756 0.1605875529318772 0 0 619.3333333333334,380.4545454545455 L619.3333333333334,386.1363636363636 A360.2368875909937 360.2368875909937 0.1605875529318772 0 1 561.7320935757399,381.50137755833214 L367.3593937687724,350.0164264479013 A354.5550694091756 354.5550694091756 0.1605875529318772 0 0 310.6666666666667,345.45454545454544 Z" style="fill: rgb(44, 160, 44);"/><title>Kinase inhibitors → MEK1/2-inhibition
5
1.00</title></g><g class="link" style="opacity: 0.8;"><path d="M310.6666666666667,282.95454545454544 A496.61913505130025 496.61913505130025 0.11424673292349086 0 0 367.28043575508434,279.717054213293 L562.0718462657956,257.365440460702 A502.3009532331184 502.3009532331184 0.11424673292349086 0 1 619.3333333333334,254.09090909090904 L619.3333333333334,259.7727272727272 A496.61913505130025 496.61913505130025 0.11424673292349086 0 0 562.7195642449158,263.0102185139796 L367.92815373420444,285.3618322665706 A502.3009532331184 502.3009532331184 0.11424673292349086 0 1 310.6666666666667,288.63636363636357 Z" style="fill: rgb(44, 160, 44);"/><title>Kinase inhibitors → PDGFA/B-inhibition, VGFR1/2/3-inhibition
5
1.00</title></g><g class="link" style="opacity: 0.8;"><path d="M310.6666666666667,288.6363636363636 A669.3165441650546 669.3165441650546 0.08466661516613194 0 0 367.2677527969823,286.23882005677746 L562.251761425265,269.69062356407727 A674.9983623468728 674.9983623468728 0.08466661516613194 0 1 619.3333333333334,267.27272727272725 L619.3333333333334,272.9545454545454 A669.3165441650546 669.3165441650546 0.08466661516613194 0 0 562.7322472030177,275.35208903413155 L367.748238574735,291.90028552683174 A674.9983623468728 674.9983623468728 0.08466661516613194 0 1 310.6666666666667,294.31818181818176 Z" style="fill: rgb(44, 160, 44);"/><title>Kinase inhibitors → VEGFR1/2/3-inhibition
5
1.00</title></g><g class="link" style="opacity: 0.8;"><path d="M310.6666666666667,260.2272727272727 A256.24010563805405 256.24010563805405 0.22400544012823453 0 0 367.5870137321212,253.82524630723796 L561.1508455812499,209.72580188845038 A261.9219238198722 261.9219238198722 0.22400544012823453 0 1 619.3333333333334,203.18181818181816 L619.3333333333334,208.86363636363635 A256.24010563805405 256.24010563805405 0.22400544012823453 0 0 562.4129862678789,215.26566278367105 L368.8491544187502,259.36510720245866 A261.9219238198722 261.9219238198722 0.22400544012823453 0 1 310.6666666666667,265.9090909090908 Z" style="fill: rgb(44, 160, 44);"/><title>Kinase inhibitors → c-MET-inhibition, VEGFR1/2/3-inhibition
5
1.00</title></g><g class="link" style="opacity: 0.8;"><path d="M620.3333333333334,322.04545454545456 A580.7909784177156 580.7909784177156 0.09761350010654768 0 0 676.936384166432,319.28064789489434 L871.8432073642202,300.1944518711852 A586.4727965995338 586.4727965995338 0.09761350010654768 0 1 929,297.40259740259734 L929,303.08441558441547 A580.7909784177156 580.7909784177156 0.09761350010654768 0 0 872.3969491669013,305.8492222349757 L677.4901259691131,324.9354182586848 A586.4727965995338 586.4727965995338 0.09761350010654768 0 1 620.3333333333334,327.7272727272727 Z" style="fill: rgb(214, 39, 40);"/><title>VEGFR1/2/3-inhibition, PDGFA/B-inhibition, c-RET-inhibition, CD117/135-inhibition → Pancreas
27
1.00</title></g><g class="link" style="opacity: 0.8;"><path d="M620.3333333333334,316.3636363636364 A253.24914151147695 253.24914151147695 0.22674984329719838 0 0 677.2667177003822,309.88101896111135 L870.789276106671,265.2319554739776 A258.9309596932951 258.9309596932951 0.22674984329719838 0 1 929,258.6038961038961 L929,264.2857142857142 A253.24914151147695 253.24914151147695 0.22674984329719838 0 0 872.0666156329512,270.76833168823924 L678.5440572266624,315.417395175373 A258.9309596932951 258.9309596932951 0.22674984329719838 0 1 620.3333333333334,322.0454545454545 Z" style="fill: rgb(214, 39, 40);"/><title>VEGFR1/2/3-inhibition, PDGFA/B-inhibition, c-RET-inhibition, CD117/135-inhibition → Kidney
27
1.00</title></g><g class="link" style="opacity: 0.8;"><path d="M620.3333333333334,267.27272727272725 A556.7877152477155 556.7877152477155 0.10183928211861781 0 0 676.9382322020881,264.38793246760076 L871.8174685169384,244.472674655983 A562.4695334295337 562.4695334295337 0.10183928211861781 0 1 929,241.55844155844153 L929,247.24025974025972 A556.7877152477155 556.7877152477155 0.10183928211861781 0 0 872.3951011312453,250.12505454538612 L677.5158648163949,270.0403123570039 A562.4695334295337 562.4695334295337 0.10183928211861781 0 1 620.3333333333334,272.9545454545454 Z" style="fill: rgb(152, 223, 138);"/><title>VEGFR1/2/3-inhibition → Kidney
26
1.00</title></g><g class="link" style="opacity: 0.8;"><path d="M620.3333333333334,582.4999999999999 A252.41049435619897 252.41049435619897 0.2329789206770756 0 1 678.60910666457,589.3193872212152 L872.0360277066618,635.2172356339937 A246.72867617438078 246.72867617438078 0.2329789206770756 0 0 929,641.8831168831169 L929,647.5649350649352 A252.41049435619897 252.41049435619897 0.2329789206770756 0 1 870.7242266687633,640.7455478437199 L677.2973056266716,594.8476994309414 A246.72867617438078 246.72867617438078 0.2329789206770756 0 0 620.3333333333334,588.1818181818181 Z" style="fill: rgb(44, 160, 44);"/><title>VEGFR1-inhibition → Ovary
25
1.00</title></g><g class="link" style="opacity: 0.8;"><path d="M620.3333333333334,565.4545454545455 A117.46955067920577 117.46955067920577 0.5395797702648195 0 0 680.6863118280598,548.7650192027508 L865.727842462232,437.9513179514742 A123.15136886102395 123.15136886102395 0.5395797702648195 0 1 929,420.45454545454544 L929,426.13636363636357 A117.46955067920577 117.46955067920577 0.5395797702648195 0 0 868.6470215052734,442.8258898881583 L683.6054908711012,553.6395911394349 A123.15136886102395 123.15136886102395 0.5395797702648195 0 1 620.3333333333334,571.1363636363637 Z" style="fill: rgb(44, 160, 44);"/><title>VEGFR1-inhibition → Lung
25
1.00</title></g><g class="link" style="opacity: 0.8;"><path d="M620.3333333333334,559.7727272727274 A89.9432258696565 89.9432258696565 0.9316843367668833 0 0 692.5240830903537,523.4791009296222 L852.2488766232595,308.553869396082 A95.62504405147469 95.62504405147469 0.9316843367668833 0 1 929,269.96753246753246 L929,275.6493506493506 A89.9432258696565 89.9432258696565 0.9316843367668833 0 0 856.8092502429797,311.94297699245584 L697.0844567100738,526.868208525996 A95.62504405147469 95.62504405147469 0.9316843367668833 0 1 620.3333333333334,565.4545454545456 Z" style="fill: rgb(44, 160, 44);"/><title>VEGFR1-inhibition → Kidney
25
1.00</title></g><g class="link" style="opacity: 0.8;"><path d="M620.3333333333334,576.8181818181818 A784.5097958577389 784.5097958577389 0.07221537299979652 0 0 676.9377716547931,574.773437805612 L871.9856036021408,560.6634491905771 A790.1916140395572 790.1916140395572 0.07221537299979652 0 1 929,558.6038961038961 L929,564.2857142857143 A784.5097958577389 784.5097958577389 0.07221537299979652 0 0 872.3955616785404,566.330458298284 L677.3477297311927,580.440446913319 A790.1916140395572 790.1916140395572 0.07221537299979652 0 1 620.3333333333334,582.5 Z" style="fill: rgb(44, 160, 44);"/><title>VEGFR1-inhibition → Colon
25
1.00</title></g><g class="link" style="opacity: 0.8;"><path d="M310.6666666666667,417.0454545454545 A104.71705943304009 104.71705943304009 0.6378455826826888 0 0 373.02211599197125,396.45603905744724 L553.5945544184646,262.6156626265239 A110.39887761485828 110.39887761485828 0.6378455826826888 0 1 619.3333333333334,240.90909090909088 L619.3333333333334,246.59090909090907 A104.71705943304009 104.71705943304009 0.6378455826826888 0 0 556.9778840080288,267.18032457891627 L376.4054455815355,401.0207010098396 A110.39887761485828 110.39887761485828 0.6378455826826888 0 1 310.6666666666667,422.72727272727263 Z" style="fill: rgb(152, 223, 138);"/><title>Monoclonal antibodies → CAIX-inhibition
6
1.00</title></g><g class="link" style="opacity: 0.8;"><path d="M310.6666666666667,434.09090909090907 A221.06472067614945 221.06472067614945 0.2613555604646616 0 0 367.7876495528063,426.58368428354277 L560.7442236554871,374.9729032044296 A226.74653885796764 226.74653885796764 0.2613555604646616 0 1 619.3333333333334,367.2727272727273 L619.3333333333334,372.95454545454544 A221.06472067614945 221.06472067614945 0.2613555604646616 0 0 562.2123504471938,380.46177026191174 L369.25577634451287,432.0725513410249 A226.74653885796764 226.74653885796764 0.2613555604646616 0 1 310.6666666666667,439.7727272727272 Z" style="fill: rgb(152, 223, 138);"/><title>Monoclonal antibodies → CD152-inhibition
6
1.00</title></g><g class="link" style="opacity: 0.8;"><path d="M620.3333333333334,571.1363636363636 A283.27180439526734 283.27180439526734 0.20197403358169952 0 0 677.1586846616505,565.3781528032207 L871.0348553376632,525.6789028622014 A288.95362257708547 288.95362257708547 0.20197403358169952 0 1 929,519.8051948051948 L929,525.487012987013 A283.27180439526734 283.27180439526734 0.20197403358169952 0 0 872.1746486716829,531.245223820156 L678.2984779956702,570.9444737611752 A288.95362257708547 288.95362257708547 0.20197403358169952 0 1 620.3333333333334,576.8181818181819 Z" style="fill: rgb(44, 160, 44);"/><title>VEGFR1-inhibition → Cervix
25
1.00</title></g><g class="link" style="opacity: 0.8;"><path d="M310.6666666666667,222.7272727272727 A112.09638620245002 112.09638620245002 0.6218922433884128 0 1 375.9711264378074,243.7142338758443 L557.338954104944,373.7131664633738 A106.41456802063183 106.41456802063183 0.6218922433884128 0 0 619.3333333333334,393.6363636363637 L619.3333333333334,399.3181818181818 A112.09638620245002 112.09638620245002 0.6218922433884128 0 1 554.0288735621926,378.3312206696103 L372.661045895056,248.3322880820807 A106.41456802063183 106.41456802063183 0.6218922433884128 0 0 310.6666666666667,228.40909090909088 Z" style="fill: rgb(214, 39, 40);"/><title>Other agent → SMO-inhibition
7
1.00</title></g><g class="link" style="opacity: 0.8;"><path d="M310.6666666666667,101.13636363636363 A997.1590909090909 997.1590909090909 0.050052323350537664 0 0 360.5559590926243,99.88756541626881 L569.1597714348632,89.43773206128674 A1002.8409090909091 1002.8409090909091 0.050052323350537664 0 1 619.3333333333334,88.18181818181817 L619.3333333333334,93.86363636363636 A997.1590909090909 997.1590909090909 0.050052323350537664 0 0 569.4440409073757,95.11243458373116 L360.8402285651369,105.56226793871323 A1002.8409090909091 1002.8409090909091 0.050052323350537664 0 1 310.6666666666667,106.81818181818181 Z" style="fill: rgb(255, 152, 150);"/><title>Other antagonist → CYP17-inhition
8
1.00</title></g><g class="link" style="opacity: 0.8;"><path d="M620.3333333333334,607.0454545454545 A997.1590909090909 997.1590909090909 0.03525442178765581 0 0 655.4803189105498,606.4258470425555 L893.6527466986969,598.0257354325786 A1002.8409090909091 1002.8409090909091 0.03525442178765581 0 1 929,597.4025974025974 L929,603.0844155844156 A997.1590909090909 997.1590909090909 0.03525442178765581 0 0 893.8530144227835,603.7040230873147 L655.6805866346365,612.1041346972916 A1002.8409090909091 1002.8409090909091 0.03525442178765581 0 1 620.3333333333334,612.7272727272727 Z" style="fill: rgb(255, 187, 120);"/><title>Thymidylate synthase-inhibition → Stomach
24
1.00</title></g><g class="link" style="opacity: 0.8;"><path d="M310.6666666666667,179.5454545454545 A997.1590909090909 997.1590909090909 0.023073991600472965 0 0 333.67306555851644,179.28001804122223 L596.1958438495074,173.2214944174913 A1002.8409090909091 1002.8409090909091 0.023073991600472965 0 1 619.3333333333334,172.95454545454544 L619.3333333333334,178.63636363636363 A997.1590909090909 997.1590909090909 0.023073991600472965 0 0 596.3269344414837,178.9018001405959 L333.80415615049276,184.96032376432683 A1002.8409090909091 1002.8409090909091 0.023073991600472965 0 1 310.6666666666667,185.2272727272727 Z" style="fill: rgb(197, 176, 213);"/><title>Parp inhibitor → PARP1-inhibition
10
1.00</title></g><g class="link" style="opacity: 0.8;"><path d="M620.3333333333334,601.3636363636364 A388.15949492422266 388.15949492422266 0.1464969901138038 0 0 676.9943519249827,597.2058634042825 L871.5095862503185,568.5043480775487 A393.8413131060408 393.8413131060408 0.1464969901138038 0 1 929,564.2857142857142 L929,569.9675324675325 A388.15949492422266 388.15949492422266 0.1464969901138038 0 0 872.3389814083507,574.1253054268864 L677.8237470830148,602.8268207536202 A393.8413131060408 393.8413131060408 0.1464969901138038 0 1 620.3333333333334,607.0454545454546 Z" style="fill: rgb(255, 187, 120);"/><title>Thymidylate synthase-inhibition → Colon
24
1.00</title></g><g class="link" style="opacity: 0.8;"><path d="M620.3333333333334,595.6818181818182 A95.80075865029929 95.80075865029929 1.1950339565941102 0 0 709.4498925896894,535.0381957101282 L834.5980537193914,217.81174528255295 A101.48257683211747 101.48257683211747 1.1950339565941102 0 1 929,153.5714285714286 L929,159.2532467532468 A95.80075865029929 95.80075865029929 1.1950339565941102 0 0 839.8834407436439,219.89686922493686 L714.7352796139419,537.1233196525121 A101.48257683211747 101.48257683211747 1.1950339565941102 0 1 620.3333333333334,601.3636363636365 Z" style="fill: rgb(255, 187, 120);"/><title>Thymidylate synthase-inhibition → Breast
24
1.00</title></g><g class="link" style="opacity: 0.8;"><path d="M620.3333333333334,669.3181818181816 A0 0 0 0 1 620.3333333333334,669.3181818181816 L929,669.3181818181819 A0 0 0 0 0 929,669.3181818181819 L929,675.0000000000001 A0 0 0 0 1 929,675.0000000000001 L620.3333333333334,674.9999999999999 A0 0 0 0 0 620.3333333333334,674.9999999999999 Z" style="fill: rgb(255, 127, 14);"/><title>TOP2-inhibition → Testis
23
1.00</title></g><g class="link" style="opacity: 0.8;"><path d="M620.3333333333334,75 A0 0 0 0 0 620.3333333333334,75 L929,75 A0 0 0 0 0 929,75 L929,80.68181818181819 A0 0 0 0 0 929,80.68181818181819 L620.3333333333334,80.68181818181819 A0 0 0 0 0 620.3333333333334,80.68181818181819 Z" style="fill: rgb(174, 199, 232);"/><title>AR-inhibition → Prostate
2
1.00</title></g><g class="link" style="opacity: 0.8;"><path d="M620.3333333333334,354.0909090909091 A490.0831637526348 490.0831637526348 0.1157801645051364 0 0 676.9485562733813,350.8097830550864 L871.7284039648118,328.1568283694408 A495.7649819344529 495.7649819344529 0.1157801645051364 0 1 929,324.83766233766227 L929,330.5194805194804 A490.0831637526348 490.0831637526348 0.1157801645051364 0 0 872.3847770599521,333.8006065553031 L677.6049293685215,356.4535612409487 A495.7649819344529 495.7649819344529 0.1157801645051364 0 1 620.3333333333334,359.77272727272725 Z" style="fill: rgb(255, 127, 14);"/><title>BRAF-inhibition → Skin
3
1.00</title></g><g class="link" style="opacity: 0.8;"><path d="M620.3333333333334,644.7727272727273 A399.4681022058784 399.4681022058784 0.14230055389499263 0 0 676.9862146217371,640.7350433728868 L871.5413187761837,612.8613474975623 A405.1499203876965 405.1499203876965 0.14230055389499263 0 1 929,608.7662337662337 L929,614.4480519480519 A399.4681022058784 399.4681022058784 0.14230055389499263 0 0 872.3471187115963,618.4857358478923 L677.7920145571496,646.3594317232169 A405.1499203876965 405.1499203876965 0.14230055389499263 0 1 620.3333333333334,650.4545454545455 Z" style="fill: rgb(255, 187, 120);"/><title>Bcr-Abl-inhibition → Stomach
4
1.00</title></g><g class="link" style="opacity: 0.8;"><path d="M620.3333333333334,240.90909090909088 A997.1590909090909 997.1590909090909 0.03983464364241396 0 0 660.0443062090153,240.11805007783724 L889.0627537745992,230.99035338122266 A1002.8409090909091 1002.8409090909091 0.03983464364241396 0 1 929,230.19480519480516 L929,235.87662337662334 A997.1590909090909 997.1590909090909 0.03983464364241396 0 0 889.2890271243181,236.66766420787698 L660.2705795587342,245.79536090449156 A1002.8409090909091 1002.8409090909091 0.03983464364241396 0 1 620.3333333333334,246.59090909090907 Z" style="fill: rgb(44, 160, 44);"/><title>CAIX-inhibition → Kidney
5
1.00</title></g><g class="link" style="opacity: 0.8;"><path d="M620.3333333333334,663.6363636363635 A888.8041755651825 888.8041755651825 0.06373507170952952 0 0 676.9429867884128,661.8317425455898 L872.0284605782361,649.3810924751892 A894.4859937470007 894.4859937470007 0.06373507170952952 0 1 929,647.5649350649351 L929,653.2467532467533 A888.8041755651825 888.8041755651825 0.06373507170952952 0 0 872.3903465449206,655.051374337527 L677.3048727550972,667.5020244079276 A894.4859937470007 894.4859937470007 0.06373507170952952 0 1 620.3333333333334,669.3181818181818 Z" style="fill: rgb(255, 127, 14);"/><title>TOP2-inhibition → Ovary
23
1.00</title></g><g class="link" style="opacity: 0.8;"><path d="M620.3333333333334,101.36363636363635 A1002.8409090909091 1002.8409090909091 0.02369349054469594 0 1 644.0919118473967,101.64511135935321 L905.3760309959315,107.83700288034878 A997.1590909090909 997.1590909090909 0.02369349054469594 0 0 929,108.11688311688312 L929,113.7987012987013 A1002.8409090909091 1002.8409090909091 0.02369349054469594 0 1 905.2414214859367,113.51722630298444 L643.9573023374019,107.32533478198887 A997.1590909090909 997.1590909090909 0.02369349054469594 0 0 620.3333333333334,107.04545454545453 Z" style="fill: rgb(214, 39, 40);"/><title>CDK4/6-inhibition → Breast
7
1.00</title></g><g class="link" style="opacity: 0.8;"><path d="M620.3333333333334,88.18181818181817 A997.1590909090909 997.1590909090909 0.02658161041642315 0 0 646.8363064664206,87.82955158612023 L902.3460127749862,81.03609199458565 A1002.8409090909091 1002.8409090909091 0.02658161041642315 0 1 929,80.68181818181819 L929,86.36363636363637 A997.1590909090909 997.1590909090909 0.02658161041642315 0 0 902.4970268669127,86.71590295933431 L646.9873205583472,93.5093625508689 A1002.8409090909091 1002.8409090909091 0.02658161041642315 0 1 620.3333333333334,93.86363636363636 Z" style="fill: rgb(255, 152, 150);"/><title>CYP17-inhition → Prostate
8
1.00</title></g><g class="link" style="opacity: 0.8;"><path d="M620.3333333333334,114.54545454545452 A997.1590909090909 997.1590909090909 0.002438547352145326 0 0 622.764950584195,114.54248973708103 L926.5545273801876,113.8016830005698 A1002.8409090909091 1002.8409090909091 0.002438547352145326 0 1 929,113.7987012987013 L929,119.48051948051949 A997.1590909090909 997.1590909090909 0.002438547352145326 0 0 926.5683827491383,119.48348428889298 L622.7788059531458,120.22429102540421 A1002.8409090909091 1002.8409090909091 0.002438547352145326 0 1 620.3333333333334,120.2272727272727 Z" style="fill: rgb(148, 103, 189);"/><title>ERA/B-inhibition → Breast
9
1.00</title></g><g class="link" style="opacity: 0.8;"><path d="M620.3333333333334,657.9545454545454 A94.27710659357392 94.27710659357392 0.7793200496940855 0 0 686.5908945569087,630.7453776123618 L858.7492804196884,460.66717029279437 A99.9589247753921 99.9589247753921 0.7793200496940855 0 1 929,431.8181818181818 L929,437.49999999999994 A94.27710659357392 94.27710659357392 0.7793200496940855 0 0 862.7424387764247,464.70916784218343 L690.584052913645,634.787375161751 A99.9589247753921 99.9589247753921 0.7793200496940855 0 1 620.3333333333334,663.6363636363636 Z" style="fill: rgb(255, 127, 14);"/><title>TOP2-inhibition → Lung
23
1.00</title></g><g class="link" style="opacity: 0.8;"><path d="M620.3333333333334,510.6818181818183 A111.54997723902541 111.54997723902541 0.5797544440398368 0 0 681.4424769804426,492.4542390299834 L864.7782511149221,372.40275742563676 A117.2317954208436 117.2317954208436 0.5797544440398368 0 1 929,353.2467532467532 L929,358.92857142857133 A111.54997723902541 111.54997723902541 0.5797544440398368 0 0 867.8908563528908,377.15615058040623 L684.5550822184113,497.20763218475287 A117.2317954208436 117.2317954208436 0.5797544440398368 0 1 620.3333333333334,516.3636363636365 Z" style="fill: rgb(174, 199, 232);"/><title>TNFα-inhibition → Skin
22
1.00</title></g><g class="link" style="opacity: 0.8;"><path d="M620.3333333333334,425.68181818181824 A132.11941457553732 132.11941457553732 0.46417492474603184 0 0 679.4812370761285,411.7024272672559 L867.3084304683279,317.6649926132539 A137.8012327573555 137.8012327573555 0.46417492474603184 0 1 929,303.0844155844155 L929,308.76623376623365 A132.11941457553732 132.11941457553732 0.46417492474603184 0 0 869.8520962572048,322.74562468079597 L682.0249028650055,416.783059334798 A137.8012327573555 137.8012327573555 0.46417492474603184 0 1 620.3333333333334,431.3636363636364 Z" style="fill: rgb(197, 176, 213);"/><title>ErbB1-inhibition → Pancreas
10
1.00</title></g><g class="link" style="opacity: 0.8;"><path d="M620.3333333333334,127.72727272727269 A997.1590909090909 997.1590909090909 0.02953606035710843 0 0 649.7812023758402,127.29235409028034 L899.384336831895,119.91791628638362 A1002.8409090909091 1002.8409090909091 0.02953606035710843 0 1 929,119.48051948051949 L929,125.16233766233768 A997.1590909090909 997.1590909090909 0.02953606035710843 0 0 899.5521309574932,125.59725629933004 L649.9489965014384,132.97169410322678 A1002.8409090909091 1002.8409090909091 0.02953606035710843 0 1 620.3333333333334,133.40909090909088 Z" style="fill: rgb(140, 86, 75);"/><title>ErbB1/2-inhibition → Breast
11
1.00</title></g><g class="link" style="opacity: 0.8;"><path d="M620.3333333333334,467.27272727272737 A251.51750946969642 251.51750946969642 0.22837050556164495 0 0 677.2745426679836,460.7424751233788 L870.7724802244804,415.7686806136493 A257.1993276515146 257.1993276515146 0.22837050556164495 0 1 929,409.09090909090907 L929,414.7727272727272 A251.51750946969642 251.51750946969642 0.22837050556164495 0 0 872.0587906653498,421.30297942207574 L678.5608531088529,466.2767739318053 A257.1993276515146 257.1993276515146 0.22837050556164495 0 1 620.3333333333334,472.9545454545455 Z" style="fill: rgb(196, 156, 148);"/><title>ErbB1/2/4-inhibition → Lung
12
1.00</title></g><g class="link" style="opacity: 0.8;"><path d="M620.3333333333334,516.3636363636365 A780.3509032574884 780.3509032574884 0.07260068977079603 0 0 676.937591057081,514.3079792835366 L871.9836006366893,500.1225725905651 A786.0327214393067 786.0327214393067 0.07260068977079603 0 1 929,498.051948051948 L929,503.7337662337661 A780.3509032574884 780.3509032574884 0.07260068977079603 0 0 872.3957422762523,505.78942331386617 L677.3497326966441,519.9748300068376 A786.0327214393067 786.0327214393067 0.07260068977079603 0 1 620.3333333333334,522.0454545454547 Z" style="fill: rgb(174, 199, 232);"/><title>TNFα-inhibition → Brain
22
1.00</title></g><g class="link" style="opacity: 0.8;"><path d="M620.3333333333334,159.77272727272725 A615.4100889985258 615.4100889985258 0.09210385177479341 0 0 676.9348674154577,157.16427337378536 L871.8758881584015,139.15851066430287 A621.091907180344 621.091907180344 0.09210385177479341 0 1 929,136.52597402597405 L929,142.20779220779224 A615.4100889985258 615.4100889985258 0.09210385177479341 0 0 872.3984659178757,144.81624610673413 L677.4574451749319,162.82200881621662 A621.091907180344 621.091907180344 0.09210385177479341 0 1 620.3333333333334,165.45454545454544 Z" style="fill: rgb(247, 182, 210);"/><title>GnRH-promotion, LHRH-promotion → Breast
14
1.00</title></g><g class="link" style="opacity: 0.8;"><path d="M620.3333333333334,380.4545454545455 A326.73986099862395 326.73986099862395 0.17451102559702258 0 0 677.064067987952,375.4918752431918 L871.282750511705,341.2502668921858 A332.4216791804421 332.4216791804421 0.17451102559702258 0 1 929,336.20129870129864 L929,341.88311688311677 A326.73986099862395 326.73986099862395 0.17451102559702258 0 0 872.2692653453814,346.84578709447044 L678.0505828216284,381.0873954454765 A332.4216791804421 332.4216791804421 0.17451102559702258 0 1 620.3333333333334,386.1363636363636 Z" style="fill: rgb(127, 127, 127);"/><title>MEK1/2-inhibition → Skin
15
1.00</title></g><g class="link" style="opacity: 0.8;"><path d="M620.3333333333334,393.6363636363637 A281.06449532065534 281.06449532065534 0.20360583771203555 0 0 677.1651343388642,387.8306500544976 L871.0193240364625,347.8061950184468 A286.74631350247347 286.74631350247347 0.20360583771203555 0 1 929,341.8831168831168 L929,347.56493506493496 A281.06449532065534 281.06449532065534 0.20360583771203555 0 0 872.1681989944692,353.37064864680104 L678.3140092968708,393.39510368285187 A286.74631350247347 286.74631350247347 0.20360583771203555 0 1 620.3333333333334,399.3181818181818 Z" style="fill: rgb(31, 119, 180);"/><title>SMO-inhibition → Skin
21
1.00</title></g><g class="link" style="opacity: 0.8;"><path d="M620.3333333333334,178.63636363636363 A394.9326576691286 394.9326576691286 0.14395408339438198 0 0 676.9893496090234,174.55137439237717 L871.5288848026748,146.35155138560992 A400.61447585094675 400.61447585094675 0.14395408339438198 0 1 929,142.20779220779224 L929,147.88961038961043 A394.9326576691286 394.9326576691286 0.14395408339438198 0 0 872.34398372431,151.97459963359688 L677.8044485306585,180.17442264036413 A400.61447585094675 400.61447585094675 0.14395408339438198 0 1 620.3333333333334,184.3181818181818 Z" style="fill: rgb(199, 199, 199);"/><title>PARP1-inhibition → Breast
16
1.00</title></g><g class="link" style="opacity: 0.8;"><path d="M620.3333333333334,172.95454545454544 A175.19122683528198 175.19122683528198 0.3354474901315361 0 0 678.0048400964042,163.1899285335342 L869.4580855594525,96.4449402498714 A180.87304501710017 180.87304501710017 0.3354474901315361 0 1 929,86.36363636363637 L929,92.04545454545456 A175.19122683528198 175.19122683528198 0.3354474901315361 0 0 871.328493236929,101.81007146646581 L679.8752477738808,168.5550597501286 A180.87304501710017 180.87304501710017 0.3354474901315361 0 1 620.3333333333334,178.63636363636363 Z" style="fill: rgb(199, 199, 199);"/><title>PARP1-inhibition → Prostate
16
1.00</title></g><g class="link" style="opacity: 0.8;"><path d="M620.3333333333334,535.2272727272727 A228.04211333724854 228.04211333724854 0.25295627049443015 0 0 677.404803913221,527.9702419956376 L870.5065564588095,478.0547275085637 A233.72393151906672 233.72393151906672 0.25295627049443015 0 1 929,470.61688311688306 L929,476.2987012987012 A228.04211333724854 228.04211333724854 0.25295627049443015 0 0 871.9285294201123,483.55573203033634 L678.8267768745238,533.4712465174103 A233.72393151906672 233.72393151906672 0.25295627049443015 0 1 620.3333333333334,540.909090909091 Z" style="fill: rgb(188, 189, 34);"/><title>PD-1-inhibition → Bladder
17
1.00</title></g><g class="link" style="opacity: 0.8;"><path d="M620.3333333333334,540.9090909090909 A1002.8409090909091 1002.8409090909091 0.04564215592576448 0 1 666.0892641049275,541.9534718838829 L883.5033096293781,551.8836141199478 A997.1590909090909 997.1590909090909 0.04564215592576448 0 0 929,552.922077922078 L929,558.6038961038962 A1002.8409090909091 1002.8409090909091 0.04564215592576448 0 1 883.2440692284059,557.5595151291042 L665.8300237039552,547.6293728930393 A997.1590909090909 997.1590909090909 0.04564215592576448 0 0 620.3333333333334,546.5909090909091 Z" style="fill: rgb(188, 189, 34);"/><title>PD-1-inhibition → Colon
17
1.00</title></g><g class="link" style="opacity: 0.8;"><path d="M620.3333333333334,529.5454545454546 A138.8929669966995 138.8929669966995 0.43695606137989995 0 0 679.1105434971668,516.4956273955613 L867.8183382026052,428.3563953130064 A144.5747851785177 144.5747851785177 0.43695606137989995 0 1 929,414.77272727272725 L929,420.4545454545454 A138.8929669966995 138.8929669966995 0.43695606137989995 0 0 870.2227898361666,433.5043726044387 L681.5149951307282,521.6436046869937 A144.5747851785177 144.5747851785177 0.43695606137989995 0 1 620.3333333333334,535.2272727272729 Z" style="fill: rgb(188, 189, 34);"/><title>PD-1-inhibition → Lung
17
1.00</title></g><g class="link" style="opacity: 0.8;"><path d="M620.3333333333334,546.590909090909 A326.2801833753767 326.2801833753767 0.17792212220888692 0 1 678.0799929078225,551.7417083055436 L872.2589363428459,586.6596756300893 A320.59836519355855 320.59836519355855 0.17792212220888692 0 0 929,591.7207792207793 L929,597.4025974025975 A326.2801833753767 326.2801833753767 0.17792212220888692 0 1 871.2533404255108,592.2517981879629 L677.0743969904875,557.3338308634172 A320.59836519355855 320.59836519355855 0.17792212220888692 0 0 620.3333333333334,552.2727272727273 Z" style="fill: rgb(188, 189, 34);"/><title>PD-1-inhibition → Stomach
17
1.00</title></g><g class="link" style="opacity: 0.8;"><path d="M620.3333333333334,335.22727272727275 A209.25158935877232 209.25158935877232 0.27697842265347394 0 0 677.5532825768548,327.25187435427273 L870.2263548014283,272.4776690233365 A214.9334075405905 214.9334075405905 0.27697842265347394 0 1 929,264.2857142857143 L929,269.9675324675324 A209.25158935877232 209.25158935877232 0.27697842265347394 0 0 871.7800507564785,277.9429308405324 L679.106978531905,332.71713617146867 A214.9334075405905 214.9334075405905 0.27697842265347394 0 1 620.3333333333334,340.9090909090909 Z" style="fill: rgb(219, 219, 141);"/><title>PD1-inhibition → Kidney
18
1.00</title></g><g class="link" style="opacity: 0.8;"><path d="M620.3333333333334,340.90909090909093 A427.1650343434352 427.1650343434352 0.13478989922972384 0 1 677.7366757706856,344.78365424869133 L872.3601923291556,371.1769730986835 A421.48321616161707 421.48321616161707 0.13478989922972384 0 0 929,374.99999999999994 L929,380.6818181818181 A427.1650343434352 427.1650343434352 0.13478989922972384 0 1 871.5966575626478,376.8072548422177 L676.9731410041778,350.4139359922255 A421.48321616161707 421.48321616161707 0.13478989922972384 0 0 620.3333333333334,346.59090909090907 Z" style="fill: rgb(219, 219, 141);"/><title>PD1-inhibition → Lung
18
1.00</title></g><g class="link" style="opacity: 0.8;"><path d="M620.3333333333334,254.09090909090904 A784.5097958577377 784.5097958577377 0.07221537299979697 0 0 676.9377716547933,252.0461650783393 L871.9856036021405,237.93617646330426 A790.1916140395559 790.1916140395559 0.07221537299979697 0 1 929,235.87662337662334 L929,241.55844155844153 A784.5097958577377 784.5097958577377 0.07221537299979697 0 0 872.39556167854,243.6031855710113 L677.3477297311929,257.71317418604633 A790.1916140395559 790.1916140395559 0.07221537299979697 0 1 620.3333333333334,259.7727272727272 Z" style="fill: rgb(23, 190, 207);"/><title>PDGFA/B-inhibition, VGFR1/2/3-inhibition → Kidney
19
1.00</title></g><g class="link" style="opacity: 0.8;"><path d="M620.3333333333334,480.45454545454555 A124.63492517052119 124.63492517052119 0.49929137566477433 0 0 680.0089769525778,465.2393722984132 L866.6038817107252,363.4737327998903 A130.31674335233936 130.31674335233936 0.49929137566477433 0 1 929,347.564935064935 L929,353.24675324675314 A124.63492517052119 124.63492517052119 0.49929137566477433 0 0 869.3243563807556,368.4619264028855 L682.7294516226082,470.2275659014084 A130.31674335233936 130.31674335233936 0.49929137566477433 0 1 620.3333333333334,486.1363636363637 Z" style="fill: rgb(158, 218, 229);"/><title>PDL1-inhibition → Skin
20
1.00</title></g><g class="link" style="opacity: 0.8;"><path d="M310.6666666666667,405.68181818181813 A88.00969033684486 88.00969033684486 0.8752895642162348 0 0 378.2342652431596,374.0665000446284 L543.0415406681133,176.606516112635 A99.37332670048123 99.37332670048123 0.8752895642162348 0 1 619.3333333333334,140.90909090909088 L619.3333333333334,152.27272727272725 A88.00969033684486 88.00969033684486 0.8752895642162348 0 0 551.7657347568405,183.8880454099169 L386.95845933188684,381.3480293419104 A99.37332670048123 99.37332670048123 0.8752895642162348 0 1 310.6666666666667,417.0454545454545 Z" style="fill: rgb(152, 223, 138);"/><title>Monoclonal antibodies → ErbB2-inhibition
6
2.00</title></g><g class="link" style="opacity: 0.8;"><path d="M310.6666666666667,345.4545454545455 A247.78107968574633 247.78107968574633 0.2405626380973107 0 1 369.70028602879825,352.58962946356934 L563.0070901135263,400.01032416641414 A236.41744332210996 236.41744332210996 0.2405626380973107 0 0 619.3333333333334,406.81818181818187 L619.3333333333334,418.18181818181824 A247.78107968574633 247.78107968574633 0.2405626380973107 0 1 560.2997139712019,411.0467341727944 L366.99290988647374,363.6260394699496 A236.41744332210996 236.41744332210996 0.2405626380973107 0 0 310.6666666666667,356.81818181818187 Z" style="fill: rgb(44, 160, 44);"/><title>Kinase inhibitors → ALK-inhibition
5
2.00</title></g><g class="link" style="opacity: 0.8;"><path d="M620.3333333333334,448.409090909091 A173.07736937919768 173.07736937919768 0.3595292321781809 0 1 681.2277679981795,459.47521494380027 L872.1036744731803,531.2188793494429 A161.7137330155613 161.7137330155613 0.3595292321781809 0 0 929,541.5584415584416 L929,552.9220779220778 A173.07736937919768 173.07736937919768 0.3595292321781809 0 1 868.1055653351539,541.8559538873687 L677.2296588601531,470.112289481726 A161.7137330155613 161.7137330155613 0.3595292321781809 0 0 620.3333333333334,459.77272727272737 Z" style="fill: rgb(197, 176, 213);"/><title>ErbB1-inhibition → Colon
10
2.00</title></g><g class="link" style="opacity: 0.8;"><path d="M620.3333333333334,406.81818181818187 A545.0349262187067 545.0349262187067 0.10350335217115436 0 0 676.645604406087,403.90132292877917 L871.5136533946547,383.6594917495997 A556.398562582343 556.398562582343 0.10350335217115436 0 1 929,380.68181818181813 L929,392.0454545454545 A545.0349262187067 545.0349262187067 0.10350335217115436 0 0 872.6877289272463,394.9623134348572 L677.8196799386786,415.2041446140367 A556.398562582343 556.398562582343 0.10350335217115436 0 1 620.3333333333334,418.18181818181824 Z" style="fill: rgb(31, 119, 180);"/><title>ALK-inhibition → Lung
1
2.00</title></g><g class="link" style="opacity: 0.8;"><path d="M310.6666666666667,663.6363636363636 A0 0 0 0 0 310.6666666666667,663.6363636363636 L619.3333333333334,663.6363636363635 A0 0 0 0 1 619.3333333333334,663.6363636363635 L619.3333333333334,674.9999999999998 A0 0 0 0 0 619.3333333333334,674.9999999999998 L310.6666666666667,674.9999999999999 A0 0 0 0 1 310.6666666666667,674.9999999999999 Z" style="fill: rgb(140, 86, 75);"/><title>Podophyllotoxin derivatives → TOP2-inhibition
11
2.00</title></g><g class="link" style="opacity: 0.8;"><path d="M310.6666666666667,568.1818181818181 A251.48694993412477 251.48694993412477 0.22575213130589145 0 0 366.95937278537866,561.8005948739827 L560.4969968496038,517.3513821023352 A262.85058629776114 262.85058629776114 0.22575213130589145 0 1 619.3333333333334,510.6818181818183 L619.3333333333334,522.0454545454546 A251.48694993412477 251.48694993412477 0.22575213130589145 0 0 563.0406272146214,528.42667785329 L369.5030031503962,572.8758906249376 A262.85058629776114 262.85058629776114 0.22575213130589145 0 1 310.6666666666667,579.5454545454544 Z" style="fill: rgb(148, 103, 189);"/><title>Other suppressant → TNFα-inhibition
9
2.00</title></g><g class="link" style="opacity: 0.8;"><path d="M310.6666666666667,422.7272727272727 A170.77194372294383 170.77194372294383 0.33880114297959274 0 0 367.4238534773802,413.0195351714536 L558.7993666963838,345.58098992759903 A182.1355800865802 182.1355800865802 0.33880114297959274 0 1 619.3333333333334,335.22727272727275 L619.3333333333334,346.5909090909091 A170.77194372294383 170.77194372294383 0.33880114297959274 0 0 562.5761465226198,356.29864664672823 L371.20063330361626,423.7371918905828 A182.1355800865802 182.1355800865802 0.33880114297959274 0 1 310.6666666666667,434.09090909090907 Z" style="fill: rgb(152, 223, 138);"/><title>Monoclonal antibodies → PD1-inhibition
6
2.00</title></g><g class="link" style="opacity: 0.8;"><path d="M620.3333333333334,140.90909090909088 A904.2492944615547 904.2492944615547 0.062449648259100154 0 0 676.7666857249612,139.14639649878453 L871.8574536954908,126.94718372752683 A915.6129308251909 915.6129308251909 0.062449648259100154 0 1 929,125.16233766233768 L929,136.52597402597405 A904.2492944615547 904.2492944615547 0.062449648259100154 0 0 872.5666476083721,138.2886684362804 L677.4758796378426,150.4878812075381 A915.6129308251909 915.6129308251909 0.062449648259100154 0 1 620.3333333333334,152.27272727272725 Z" style="fill: rgb(227, 119, 194);"/><title>ErbB2-inhibition → Breast
13
2.00</title></g><g class="link" style="opacity: 0.8;"><path d="M620.3333333333334,184.3181818181818 A104.64075586217366 104.64075586217366 1.2005708058916778 0 1 717.8842353616168,251.09722481794944 L842.0427999042047,570.9924184052535 A93.27711949853729 93.27711949853729 1.2005708058916778 0 0 929,630.5194805194806 L929,641.8831168831168 A104.64075586217366 104.64075586217366 1.2005708058916778 0 1 831.4490979717166,575.1040738833493 L707.2905334291287,255.20888029604527 A93.27711949853729 93.27711949853729 1.2005708058916778 0 0 620.3333333333334,195.6818181818182 Z" style="fill: rgb(199, 199, 199);"/><title>PARP1-inhibition → Ovary
16
2.00</title></g><g class="link" style="opacity: 0.8;"><path d="M620.3333333333334,286.1363636363636 A367.574144425413 367.574144425413 0.1536106202423817 0 0 676.5748340746946,281.8082036958914 L871.0197807642542,251.7022257071707 A378.9377807890494 378.9377807890494 0.1536106202423817 0 1 929,247.24025974025972 L929,258.6038961038961 A367.574144425413 367.574144425413 0.1536106202423817 0 0 872.7584992586387,262.9320560443683 L678.3135525690792,293.03803403308905 A378.9377807890494 378.9377807890494 0.1536106202423817 0 1 620.3333333333334,297.5 Z" style="fill: rgb(140, 86, 75);"/><title>mTOR-inhibition → Kidney
31
2.00</title></g><g class="link" style="opacity: 0.8;"><path d="M1,539.7727272727271 A139.64039727550727 139.64039727550727 0.46853776573031514 0 1 64.05910663572712,554.8218342364092 L251.73917503064752,649.8119207560652 A128.2767609118709 128.2767609118709 0.46853776573031514 0 0 309.6666666666667,663.6363636363636 L309.6666666666667,674.9999999999999 A139.64039727550727 139.64039727550727 0.46853776573031514 0 1 246.60756003093957,659.9508930363178 L58.92749163601916,564.9608065166618 A128.2767609118709 128.2767609118709 0.46853776573031514 0 0 1,551.1363636363634 Z" style="fill: rgb(31, 119, 180);"/><title>Antineoplastic → Podophyllotoxin derivatives
1
2.00</title></g><g class="link" style="opacity: 0.8;"><path d="M1,663.6363636363636 A158.35439538239535 158.35439538239535 0.3679303179836184 0 0 57.95770667264945,653.0383020861136 L248.6216300201843,579.5404049914121 A169.71803174603173 169.71803174603173 0.3679303179836184 0 1 309.6666666666667,568.1818181818181 L309.6666666666667,579.5454545454544 A158.35439538239535 158.35439538239535 0.3679303179836184 0 0 252.70895999401725,590.1435160957044 L62.04503664648236,663.641413190406 A169.71803174603173 169.71803174603173 0.3679303179836184 0 1 1,674.9999999999999 Z" style="fill: rgb(255, 127, 14);"/><title>Immunosuppressants → Other suppressant
3
2.00</title></g><g class="link" style="opacity: 0.8;"><path d="M310.6666666666667,322.72727272727275 A994.3181818181819 994.3181818181819 0.022211542284191976 0 0 332.7501910741385,322.48200807561324 L596.9974257897761,316.6117040398863 A1005.6818181818181 1005.6818181818181 0.022211542284191976 0 1 619.3333333333334,316.3636363636364 L619.3333333333334,327.72727272727275 A994.3181818181819 994.3181818181819 0.022211542284191976 0 0 597.2498089258615,327.97253737893226 L333.00257421022394,333.8428414146592 A1005.6818181818181 1005.6818181818181 0.022211542284191976 0 1 310.6666666666667,334.0909090909091 Z" style="fill: rgb(44, 160, 44);"/><title>Kinase inhibitors → VEGFR1/2/3-inhibition, PDGFA/B-inhibition, c-RET-inhibition, CD117/135-inhibition
5
2.00</title></g><g class="link" style="opacity: 0.8;"><path d="M310.6666666666667,439.77272727272725 A1008.5227272727273 1008.5227272727273 0.00988843786534277 0 1 320.63921846788236,439.82203415392433 L609.5293317034059,442.6787992018142 A991.4772727272727 991.4772727272727 0.00988843786534277 0 0 619.3333333333334,442.7272727272728 L619.3333333333334,459.7727272727273 A1008.5227272727273 1008.5227272727273 0.00988843786534277 0 1 609.3607815321177,459.7234203915302 L320.47066829659417,456.8666553436404 A991.4772727272727 991.4772727272727 0.00988843786534277 0 0 310.6666666666667,456.81818181818176 Z" style="fill: rgb(152, 223, 138);"/><title>Monoclonal antibodies → ErbB1-inhibition
6
3.00</title></g><g class="link" style="opacity: 0.8;"><path d="M620.3333333333334,431.36363636363643 A360.85230250481595 360.85230250481595 0.1552605936935758 0 0 676.1346542194985,427.0230402730509 L870.562811552123,396.59108586194463 A377.89775705027046 377.89775705027046 0.1552605936935758 0 1 929,392.0454545454545 L929,409.090909090909 A360.85230250481595 360.85230250481595 0.1552605936935758 0 0 873.1986791138348,413.4315051814946 L678.7705217812104,443.86345959260086 A377.89775705027046 377.89775705027046 0.1552605936935758 0 1 620.3333333333334,448.40909090909093 Z" style="fill: rgb(197, 176, 213);"/><title>ErbB1-inhibition → Lung
10
3.00</title></g><g class="link" style="opacity: 0.8;"><path d="M1,517.0454545454545 A193.2441921959319 193.2441921959319 0.32198406973034066 0 1 62.15198731844965,526.9763840884555 L253.90870132815826,590.9450461134768 A176.19873765047734 176.19873765047734 0.32198406973034066 0 0 309.6666666666667,600 L309.6666666666667,617.0454545454545 A193.2441921959319 193.2441921959319 0.32198406973034066 0 1 248.51467934821704,607.1145250024535 L56.757965338508406,543.1458629774322 A176.19873765047734 176.19873765047734 0.32198406973034066 0 0 1,534.090909090909 Z" style="fill: rgb(31, 119, 180);"/><title>Antineoplastic → Pyrimidine analogues
1
3.00</title></g><g class="link" style="opacity: 0.8;"><path d="M310.6666666666667,205.68181818181813 A523.950673542145 523.950673542145 0.10708625282402151 0 0 366.6674065013632,202.68049481033418 L561.5107463027722,181.73532772803023 A540.9961280875995 540.9961280875995 0.10708625282402151 0 1 619.3333333333334,178.63636363636363 L619.3333333333334,195.6818181818182 A523.950673542145 523.950673542145 0.10708625282402151 0 0 563.3325934986368,198.68314155330214 L368.4892536972278,219.6283086356061 A540.9961280875995 540.9961280875995 0.10708625282402151 0 1 310.6666666666667,222.7272727272727 Z" style="fill: rgb(214, 39, 40);"/><title>Other agent → PARP1-inhibition
7
3.00</title></g><g class="link" style="opacity: 0.8;"><path d="M620.3333333333334,486.13636363636374 A435.2164629703937 435.2164629703937 0.12879984386431031 0 0 676.2342856049577,482.5313615605872 L870.909661016094,457.3176222248386 A452.2619175158482 452.2619175158482 0.12879984386431031 0 1 929,453.5714285714285 L929,470.616883116883 A435.2164629703937 435.2164629703937 0.12879984386431031 0 0 873.0990477283757,474.22188519265956 L678.4236723172394,499.43562452840814 A452.2619175158482 452.2619175158482 0.12879984386431031 0 1 620.3333333333334,503.18181818181824 Z" style="fill: rgb(158, 218, 229);"/><title>PDL1-inhibition → Bladder
20
3.00</title></g><g class="link" style="opacity: 0.8;"><path d="M310.6666666666667,600 A991.4772727272727 991.4772727272727 0.014687701091824934 0 0 325.2286649014851,599.8930569387506 L604.5209855586613,595.790599805725 A1008.5227272727273 1008.5227272727273 0.014687701091824934 0 1 619.3333333333334,595.6818181818182 L619.3333333333334,612.7272727272727 A991.4772727272727 991.4772727272727 0.014687701091824934 0 0 604.771335098515,612.8342157885221 L325.4790144413387,616.9366729215477 A1008.5227272727273 1008.5227272727273 0.014687701091824934 0 1 310.6666666666667,617.0454545454545 Z" style="fill: rgb(196, 156, 148);"/><title>Pyrimidine analogues → Thymidylate synthase-inhibition
12
3.00</title></g><g class="link" style="opacity: 0.8;"><path d="M310.6666666666667,530.6818181818182 A181.55244731579765 181.55244731579765 0.34632869009574896 0 1 372.2940595800209,541.4614469079512 L563.4919650106157,610.4597133738461 A164.5069927703431 164.5069927703431 0.34632869009574896 0 0 619.3333333333334,620.2272727272727 L619.3333333333334,637.2727272727273 A181.55244731579765 181.55244731579765 0.34632869009574896 0 1 557.7059404199791,626.4930985465943 L366.5080349893844,557.4948320806994 A164.5069927703431 164.5069927703431 0.34632869009574896 0 0 310.6666666666667,547.7272727272727 Z" style="fill: rgb(152, 223, 138);"/><title>Monoclonal antibodies → VEGFR2-inhibition
6
3.00</title></g><g class="link" style="opacity: 0.8;"><path d="M310.6666666666667,265.9090909090909 A287.3566750069505 287.3566750069505 0.19506266289662944 0 0 366.3644391063144,260.45952261694345 L560.3316743617994,222.13646274127595 A304.40212955240503 304.40212955240503 0.19506266289662944 0 1 619.3333333333334,216.36363636363635 L619.3333333333334,233.4090909090909 A287.3566750069505 287.3566750069505 0.19506266289662944 0 0 563.6355608936857,238.85865920123828 L369.6683256382007,277.1817190769058 A304.40212955240503 304.40212955240503 0.19506266289662944 0 1 310.6666666666667,282.9545454545454 Z" style="fill: rgb(44, 160, 44);"/><title>Kinase inhibitors → c/b-RAF-inhibition, VEGFR2/3-inhibition, PDGFB-inhibition, c-RET-inhibition, CD117/135-inhibition
5
3.00</title></g><g class="link" style="opacity: 0.8;"><path d="M310.6666666666667,356.81818181818187 A226.38221772177215 226.38221772177215 0.26911609133627823 0 1 370.85704556064377,364.96651860203156 L563.6749904704367,418.14701061270955 A209.3367631763176 209.3367631763176 0.26911609133627823 0 0 619.3333333333334,425.68181818181824 L619.3333333333334,442.72727272727275 A226.38221772177215 226.38221772177215 0.26911609133627823 0 1 559.1429544393562,434.57893594342306 L366.3250095295633,381.39844393274507 A209.3367631763176 209.3367631763176 0.26911609133627823 0 0 310.6666666666667,373.8636363636364 Z" style="fill: rgb(44, 160, 44);"/><title>Kinase inhibitors → ErbB1-inhibition
5
3.00</title></g><g class="link" style="opacity: 0.8;"><path d="M310.6666666666667,479.54545454545456 A304.6889696969694 304.6889696969694 0.19682307284176948 0 1 370.2500368855459,485.4281487923245 L564.1943888720434,524.1015605500435 A281.9616969696967 281.9616969696967 0.19682307284176948 0 0 619.3333333333334,529.5454545454546 L619.3333333333334,552.2727272727274 A304.6889696969694 304.6889696969694 0.19682307284176948 0 1 559.7499631144542,546.3900330258574 L365.8056111279567,507.71662126813834 A281.9616969696967 281.9616969696967 0.19682307284176948 0 0 310.6666666666667,502.2727272727273 Z" style="fill: rgb(152, 223, 138);"/><title>Monoclonal antibodies → PD-1-inhibition
6
4.00</title></g><g class="link" style="opacity: 0.8;"><path d="M310.6666666666667,456.8181818181818 A619.5396037296011 619.5396037296011 0.09364179625725111 0 1 368.5967186153802,459.53250261050704 L563.5283950687453,477.8397971650033 A596.8123310023284 596.8123310023284 0.09364179625725111 0 0 619.3333333333334,480.45454545454555 L619.3333333333334,503.1818181818183 A619.5396037296011 619.5396037296011 0.09364179625725111 0 1 561.4032813846197,500.4674973894931 L366.4716049312547,482.1602028349968 A596.8123310023284 596.8123310023284 0.09364179625725111 0 0 310.6666666666667,479.54545454545456 Z" style="fill: rgb(152, 223, 138);"/><title>Monoclonal antibodies → PDL1-inhibition
6
4.00</title></g><g class="link" style="opacity: 0.8;"><path d="M1,215.9090909090909 A988.6363636363636 988.6363636363636 0.037730632744628734 0 0 38.29302568860857,215.20546270521663 L271.5163300426878,206.401621746701 A1011.3636363636364 1011.3636363636364 0.037730632744628734 0 1 309.6666666666667,205.68181818181813 L309.6666666666667,228.40909090909088 A988.6363636363636 988.6363636363636 0.037730632744628734 0 0 272.37364097805806,229.11271911296515 L39.15033662397888,237.91656007148077 A1011.3636363636364 1011.3636363636364 0.037730632744628734 0 1 1,238.63636363636365 Z" style="fill: rgb(31, 119, 180);"/><title>Antineoplastic → Other agent
1
4.00</title></g><g class="link" style="opacity: 0.8;"><path d="M310.6666666666667,294.3181818181818 A985.7954545454545 985.7954545454545 0.05449280232136222 0 0 364.3588414483107,292.85490117018594 L564.0938336300281,281.9599955736651 A1014.2045454545455 1014.2045454545455 0.05449280232136222 0 1 619.3333333333334,280.45454545454544 L619.3333333333334,308.8636363636363 A985.7954545454545 985.7954545454545 0.05449280232136222 0 0 565.6411585516893,310.3269170116322 L365.90616636997197,321.22182260815305 A1014.2045454545455 1014.2045454545455 0.05449280232136222 0 1 310.6666666666667,322.7272727272727 Z" style="fill: rgb(44, 160, 44);"/><title>Kinase inhibitors → mTOR-inhibition
5
5.00</title></g><g class="link" style="opacity: 0.8;"><path d="M310.6666666666667,502.2727272727273 A271.373313570487 271.373313570487 0.22575213130589344 0 1 371.41072592415964,509.1585466527554 L564.9483499883844,553.6077594244031 A242.96422266139615 242.96422266139615 0.22575213130589344 0 0 619.3333333333334,559.7727272727274 L619.3333333333334,588.1818181818184 A271.373313570487 271.373313570487 0.22575213130589344 0 1 558.5892740758405,581.2959988017902 L365.05165001161566,536.8467860301425 A242.96422266139615 242.96422266139615 0.22575213130589344 0 0 310.6666666666667,530.6818181818182 Z" style="fill: rgb(152, 223, 138);"/><title>Monoclonal antibodies → VEGFR1-inhibition
6
5.00</title></g><g class="link" style="opacity: 0.8;"><path d="M1,238.63636363636363 A1068.1818181818182 1068.1818181818182 0.037730632744628734 0 1 41.29361396240466,239.39660560376802 L274.51691831648384,248.20044656228356 A931.8181818181818 931.8181818181818 0.037730632744628734 0 0 309.6666666666667,248.86363636363632 L309.6666666666667,385.2272727272727 A1068.1818181818182 1068.1818181818182 0.037730632744628734 0 1 269.373052704262,384.4670307598683 L36.14974835018279,375.66318980135276 A931.8181818181818 931.8181818181818 0.037730632744628734 0 0 1,375 Z" style="fill: rgb(31, 119, 180);"/><title>Antineoplastic → Kinase inhibitors
1
24.0</title></g><g class="link" style="opacity: 0.8;"><path d="M1,375 A541.4144320987663 541.4144320987663 0.12139973806755999 0 1 66.56624148417106,378.98475738544255 L261.30237995557627,402.74250148009435 A399.36897755331177 399.36897755331177 0.12139973806755999 0 0 309.6666666666667,405.68181818181813 L309.6666666666667,547.7272727272726 A541.4144320987663 541.4144320987663 0.12139973806755999 0 1 244.10042518249563,543.7425153418301 L49.36428671109043,519.9847712471783 A399.36897755331177 399.36897755331177 0.12139973806755999 0 0 1,517.0454545454545 Z" style="fill: rgb(31, 119, 180);"/><title>Antineoplastic → Monoclonal antibodies
1
25.0</title></g></g><g class="nodes"><g class="node" transform="translate(619.3333333333334,480.45454545454555)"><title>PDL1-inhibition</title><text dy=".35em" text-anchor="start" transform="translate(4,11.363636363636374)" style="display: inline;">PDL1-inhibition</text><line x1="0" x2="0" y1="0" y2="22.727272727272748" style="display: inline; stroke: rgb(0, 0, 0);"/><rect x="-5" y="-5" width="10" height="27.727272727272748" style="fill: none; visibility: hidden; pointer-events: all;"/></g><g class="node" transform="translate(929,519.8051948051948)"><title>Cervix</title><text dy=".35em" text-anchor="start" transform="translate(4,2.840909090909065)" style="display: inline;">Cervix</text><line x1="0" x2="0" y1="0" y2="5.68181818181813" style="display: inline; stroke: rgb(0, 0, 0);"/><rect x="-5" y="-5" width="10" height="10.68181818181813" style="fill: none; visibility: hidden; pointer-events: all;"/></g><g class="node" transform="translate(929,324.83766233766227)"><title>Skin</title><text dy=".35em" text-anchor="start" transform="translate(4,17.045454545454533)" style="display: inline;">Skin</text><line x1="0" x2="0" y1="0" y2="34.090909090909065" style="display: inline; stroke: rgb(0, 0, 0);"/><rect x="-5" y="-5" width="10" height="39.090909090909065" style="fill: none; visibility: hidden; pointer-events: all;"/></g><g class="node" transform="translate(619.3333333333334,367.2727272727273)"><title>CD152-inhibition</title><text dy=".35em" text-anchor="start" transform="translate(4,2.8409090909090935)" style="display: inline;">CD152-inhibition</text><line x1="0" x2="0" y1="0" y2="5.681818181818187" style="display: inline; stroke: rgb(0, 0, 0);"/><rect x="-5" y="-5" width="10" height="10.681818181818187" style="fill: none; visibility: hidden; pointer-events: all;"/></g><g class="node" transform="translate(619.3333333333334,335.22727272727275)"><title>PD1-inhibition</title><text dy=".35em" text-anchor="start" transform="translate(4,5.681818181818187)" style="display: inline;">PD1-inhibition</text><line x1="0" x2="0" y1="0" y2="11.363636363636374" style="display: inline; stroke: rgb(0, 0, 0);"/><rect x="-5" y="-5" width="10" height="16.363636363636374" style="fill: none; visibility: hidden; pointer-events: all;"/></g><g class="node" transform="translate(309.6666666666667,179.5454545454545)"><title>Parp inhibitor</title><text dy=".35em" text-anchor="start" transform="translate(-4,-10)" style="display: inline;">Parp inhibitor</text><line x1="0" x2="0" y1="-5" y2="5.681818181818187" style="display: inline; stroke: rgb(0, 0, 0);"/><rect x="-5" y="-5" width="10" height="10.681818181818187" style="fill: none; visibility: hidden; pointer-events: all;"/></g><g class="node" transform="translate(619.3333333333334,316.3636363636364)"><title>VEGFR1/2/3-inhibition, PDGFA/B-inhibition, c-RET-inhibition, CD117/135-inhibition</title><text dy=".35em" text-anchor="start" transform="translate(4,5.681818181818187)" style="display: inline;">VEGFR1/2/3-inhibition, PDGFA/B-inhibition, c-RET-inhibition, CD117/135-inhibition</text><line x1="0" x2="0" y1="0" y2="11.363636363636374" style="display: inline; stroke: rgb(0, 0, 0);"/><rect x="-5" y="-5" width="10" height="16.363636363636374" style="fill: none; visibility: hidden; pointer-events: all;"/></g><g class="node" transform="translate(929,669.3181818181819)"><title>Testis</title><text dy=".35em" text-anchor="start" transform="translate(4,2.840909090909065)" style="display: inline;">Testis</text><line x1="0" x2="0" y1="0" y2="5.68181818181813" style="display: inline; stroke: rgb(0, 0, 0);"/><rect x="-5" y="-5" width="10" height="10.68181818181813" style="fill: none; visibility: hidden; pointer-events: all;"/></g><g class="node" transform="translate(619.3333333333334,140.90909090909088)"><title>ErbB2-inhibition</title><text dy=".35em" text-anchor="start" transform="translate(4,5.681818181818187)" style="display: inline;">ErbB2-inhibition</text><line x1="0" x2="0" y1="0" y2="11.363636363636374" style="display: inline; stroke: rgb(0, 0, 0);"/><rect x="-5" y="-5" width="10" height="16.363636363636374" style="fill: none; visibility: hidden; pointer-events: all;"/></g><g class="node" transform="translate(619.3333333333334,393.6363636363637)"><title>SMO-inhibition</title><text dy=".35em" text-anchor="start" transform="translate(4,2.8409090909090935)" style="display: inline;">SMO-inhibition</text><line x1="0" x2="0" y1="0" y2="5.681818181818187" style="display: inline; stroke: rgb(0, 0, 0);"/><rect x="-5" y="-5" width="10" height="10.681818181818187" style="fill: none; visibility: hidden; pointer-events: all;"/></g><g class="node" transform="translate(309.6666666666667,568.1818181818181)"><title>Other suppressant</title><text dy=".35em" text-anchor="start" transform="translate(-4,-10)" style="display: inline;">Other suppressant</text><line x1="0" x2="0" y1="-5" y2="11.363636363636374" style="display: inline; stroke: rgb(0, 0, 0);"/><rect x="-5" y="-5" width="10" height="16.363636363636374" style="fill: none; visibility: hidden; pointer-events: all;"/></g><g class="node" transform="translate(309.6666666666667,205.68181818181813)"><title>Other agent</title><text dy=".35em" text-anchor="start" transform="translate(-4,-10)" style="display: inline;">Other agent</text><line x1="0" x2="0" y1="-5" y2="22.72727272727272" style="display: inline; stroke: rgb(0, 0, 0);"/><rect x="-5" y="-5" width="10" height="27.72727272727272" style="fill: none; visibility: hidden; pointer-events: all;"/></g><g class="node" transform="translate(309.6666666666667,127.27272727272725)"><title>Anti-estrogens</title><text dy=".35em" text-anchor="start" transform="translate(-4,-10)" style="display: inline;">Anti-estrogens</text><line x1="0" x2="0" y1="-5" y2="5.681818181818187" style="display: inline; stroke: rgb(0, 0, 0);"/><rect x="-5" y="-5" width="10" height="10.681818181818187" style="fill: none; visibility: hidden; pointer-events: all;"/></g><g class="node" transform="translate(619.3333333333334,559.7727272727274)"><title>VEGFR1-inhibition</title><text dy=".35em" text-anchor="start" transform="translate(4,14.204545454545439)" style="display: inline;">VEGFR1-inhibition</text><line x1="0" x2="0" y1="0" y2="28.409090909090878" style="display: inline; stroke: rgb(0, 0, 0);"/><rect x="-5" y="-5" width="10" height="33.40909090909088" style="fill: none; visibility: hidden; pointer-events: all;"/></g><g class="node" transform="translate(619.3333333333334,380.4545454545455)"><title>MEK1/2-inhibition</title><text dy=".35em" text-anchor="start" transform="translate(4,2.8409090909090935)" style="display: inline;">MEK1/2-inhibition</text><line x1="0" x2="0" y1="0" y2="5.681818181818187" style="display: inline; stroke: rgb(0, 0, 0);"/><rect x="-5" y="-5" width="10" height="10.681818181818187" style="fill: none; visibility: hidden; pointer-events: all;"/></g><g class="node" transform="translate(929,541.5584415584416)"><title>Colon</title><text dy=".35em" text-anchor="start" transform="translate(4,17.04545454545456)" style="display: inline;">Colon</text><line x1="0" x2="0" y1="0" y2="34.09090909090912" style="display: inline; stroke: rgb(0, 0, 0);"/><rect x="-5" y="-5" width="10" height="39.09090909090912" style="fill: none; visibility: hidden; pointer-events: all;"/></g><g class="node" transform="translate(929,591.7207792207793)"><title>Stomach</title><text dy=".35em" text-anchor="start" transform="translate(4,11.363636363636374)" style="display: inline;">Stomach</text><line x1="0" x2="0" y1="0" y2="22.727272727272748" style="display: inline; stroke: rgb(0, 0, 0);"/><rect x="-5" y="-5" width="10" height="27.727272727272748" style="fill: none; visibility: hidden; pointer-events: all;"/></g><g class="node" transform="translate(619.3333333333334,88.18181818181817)"><title>CYP17-inhition</title><text dy=".35em" text-anchor="start" transform="translate(4,2.8409090909090935)" style="display: inline;">CYP17-inhition</text><line x1="0" x2="0" y1="0" y2="5.681818181818187" style="display: inline; stroke: rgb(0, 0, 0);"/><rect x="-5" y="-5" width="10" height="10.681818181818187" style="fill: none; visibility: hidden; pointer-events: all;"/></g><g class="node" transform="translate(929,492.3701298701298)"><title>Brain</title><text dy=".35em" text-anchor="start" transform="translate(4,5.681818181818187)" style="display: inline;">Brain</text><line x1="0" x2="0" y1="0" y2="11.363636363636374" style="display: inline; stroke: rgb(0, 0, 0);"/><rect x="-5" y="-5" width="10" height="16.363636363636374" style="fill: none; visibility: hidden; pointer-events: all;"/></g><g class="node" transform="translate(0,75)"><title>Endocrine</title><text dy=".35em" text-anchor="end" transform="translate(-4,11.36363636363636)" style="display: inline;">Endocrine</text><line x1="0" x2="0" y1="0" y2="22.72727272727272" style="display: inline; stroke: rgb(0, 0, 0);"/><rect x="-5" y="-5" width="10" height="27.72727272727272" style="fill: none; visibility: hidden; pointer-events: all;"/></g><g class="node" transform="translate(309.6666666666667,405.68181818181813)"><title>Monoclonal antibodies</title><text dy=".35em" text-anchor="start" transform="translate(-4,-10)" style="display: inline;">Monoclonal antibodies</text><line x1="0" x2="0" y1="-5" y2="142.0454545454545" style="display: inline; stroke: rgb(0, 0, 0);"/><rect x="-5" y="-5" width="10" height="147.0454545454545" style="fill: none; visibility: hidden; pointer-events: all;"/></g><g class="node" transform="translate(929,453.5714285714285)"><title>Bladder</title><text dy=".35em" text-anchor="start" transform="translate(4,11.363636363636374)" style="display: inline;">Bladder</text><line x1="0" x2="0" y1="0" y2="22.727272727272748" style="display: inline; stroke: rgb(0, 0, 0);"/><rect x="-5" y="-5" width="10" height="27.727272727272748" style="fill: none; visibility: hidden; pointer-events: all;"/></g><g class="node" transform="translate(619.3333333333334,127.72727272727269)"><title>ErbB1/2-inhibition</title><text dy=".35em" text-anchor="start" transform="translate(4,2.8409090909090935)" style="display: inline;">ErbB1/2-inhibition</text><line x1="0" x2="0" y1="0" y2="5.681818181818187" style="display: inline; stroke: rgb(0, 0, 0);"/><rect x="-5" y="-5" width="10" height="10.681818181818187" style="fill: none; visibility: hidden; pointer-events: all;"/></g><g class="node" transform="translate(619.3333333333334,114.54545454545452)"><title>ERA/B-inhibition</title><text dy=".35em" text-anchor="start" transform="translate(4,2.8409090909090935)" style="display: inline;">ERA/B-inhibition</text><line x1="0" x2="0" y1="0" y2="5.681818181818187" style="display: inline; stroke: rgb(0, 0, 0);"/><rect x="-5" y="-5" width="10" height="10.681818181818187" style="fill: none; visibility: hidden; pointer-events: all;"/></g><g class="node" transform="translate(309.6666666666667,637.5)"><title>Anthracyclines</title><text dy=".35em" text-anchor="start" transform="translate(-4,-10)" style="display: inline;">Anthracyclines</text><line x1="0" x2="0" y1="-5" y2="5.68181818181813" style="display: inline; stroke: rgb(0, 0, 0);"/><rect x="-5" y="-5" width="10" height="10.68181818181813" style="fill: none; visibility: hidden; pointer-events: all;"/></g><g class="node" transform="translate(929,108.11688311688312)"><title>Breast</title><text dy=".35em" text-anchor="start" transform="translate(4,25.568181818181813)" style="display: inline;">Breast</text><line x1="0" x2="0" y1="0" y2="51.136363636363626" style="display: inline; stroke: rgb(0, 0, 0);"/><rect x="-5" y="-5" width="10" height="56.136363636363626" style="fill: none; visibility: hidden; pointer-events: all;"/></g><g class="node" transform="translate(619.3333333333334,216.36363636363635)"><title>c/b-RAF-inhibition, VEGFR2/3-inhibition, PDGFB-inhibition, c-RET-inhibition, CD117/135-inhibition</title><text dy=".35em" text-anchor="start" transform="translate(4,8.522727272727266)" style="display: inline;">c/b-RAF-inhibition, VEGFR2/3-inhibition, PDGFB-inhibition, c-RET-inhibition, CD117/135-inhibition</text><line x1="0" x2="0" y1="0" y2="17.045454545454533" style="display: inline; stroke: rgb(0, 0, 0);"/><rect x="-5" y="-5" width="10" height="22.045454545454533" style="fill: none; visibility: hidden; pointer-events: all;"/></g><g class="node" transform="translate(619.3333333333334,657.9545454545454)"><title>TOP2-inhibition</title><text dy=".35em" text-anchor="start" transform="translate(4,8.522727272727252)" style="display: inline;">TOP2-inhibition</text><line x1="0" x2="0" y1="0" y2="17.045454545454504" style="display: inline; stroke: rgb(0, 0, 0);"/><rect x="-5" y="-5" width="10" height="22.045454545454504" style="fill: none; visibility: hidden; pointer-events: all;"/></g><g class="node" transform="translate(619.3333333333334,467.27272727272737)"><title>ErbB1/2/4-inhibition</title><text dy=".35em" text-anchor="start" transform="translate(4,2.8409090909090935)" style="display: inline;">ErbB1/2/4-inhibition</text><line x1="0" x2="0" y1="0" y2="5.681818181818187" style="display: inline; stroke: rgb(0, 0, 0);"/><rect x="-5" y="-5" width="10" height="10.681818181818187" style="fill: none; visibility: hidden; pointer-events: all;"/></g><g class="node" transform="translate(929,75)"><title>Prostate</title><text dy=".35em" text-anchor="start" transform="translate(4,8.522727272727273)" style="display: inline;">Prostate</text><line x1="0" x2="0" y1="0" y2="17.045454545454547" style="display: inline; stroke: rgb(0, 0, 0);"/><rect x="-5" y="-5" width="10" height="22.045454545454547" style="fill: none; visibility: hidden; pointer-events: all;"/></g><g class="node" transform="translate(309.6666666666667,600)"><title>Pyrimidine analogues</title><text dy=".35em" text-anchor="start" transform="translate(-4,-10)" style="display: inline;">Pyrimidine analogues</text><line x1="0" x2="0" y1="-5" y2="17.045454545454504" style="display: inline; stroke: rgb(0, 0, 0);"/><rect x="-5" y="-5" width="10" height="22.045454545454504" style="fill: none; visibility: hidden; pointer-events: all;"/></g><g class="node" transform="translate(309.6666666666667,248.86363636363632)"><title>Kinase inhibitors</title><text dy=".35em" text-anchor="start" transform="translate(-4,-10)" style="display: inline;">Kinase inhibitors</text><line x1="0" x2="0" y1="-5" y2="136.36363636363637" style="display: inline; stroke: rgb(0, 0, 0);"/><rect x="-5" y="-5" width="10" height="141.36363636363637" style="fill: none; visibility: hidden; pointer-events: all;"/></g><g class="node" transform="translate(929,202.75974025974023)"><title>Liver</title><text dy=".35em" text-anchor="start" transform="translate(4,2.8409090909090935)" style="display: inline;">Liver</text><line x1="0" x2="0" y1="0" y2="5.681818181818187" style="display: inline; stroke: rgb(0, 0, 0);"/><rect x="-5" y="-5" width="10" height="10.681818181818187" style="fill: none; visibility: hidden; pointer-events: all;"/></g><g class="node" transform="translate(309.6666666666667,663.6363636363636)"><title>Podophyllotoxin derivatives</title><text dy=".35em" text-anchor="start" transform="translate(-4,-10)" style="display: inline;">Podophyllotoxin derivatives</text><line x1="0" x2="0" y1="-5" y2="11.363636363636374" style="display: inline; stroke: rgb(0, 0, 0);"/><rect x="-5" y="-5" width="10" height="16.363636363636374" style="fill: none; visibility: hidden; pointer-events: all;"/></g><g class="node" transform="translate(619.3333333333334,267.27272727272725)"><title>VEGFR1/2/3-inhibition</title><text dy=".35em" text-anchor="start" transform="translate(4,2.8409090909090935)" style="display: inline;">VEGFR1/2/3-inhibition</text><line x1="0" x2="0" y1="0" y2="5.681818181818187" style="display: inline; stroke: rgb(0, 0, 0);"/><rect x="-5" y="-5" width="10" height="10.681818181818187" style="fill: none; visibility: hidden; pointer-events: all;"/></g><g class="node" transform="translate(0,210.22727272727272)"><title>Antineoplastic</title><text dy=".35em" text-anchor="end" transform="translate(-4,170.45454545454544)" style="display: inline;">Antineoplastic</text><line x1="0" x2="0" y1="0" y2="340.9090909090909" style="display: inline; stroke: rgb(0, 0, 0);"/><rect x="-5" y="-5" width="10" height="345.9090909090909" style="fill: none; visibility: hidden; pointer-events: all;"/></g><g class="node" transform="translate(619.3333333333334,254.09090909090907)"><title>PDGFA/B-inhibition, VGFR1/2/3-inhibition</title><text dy=".35em" text-anchor="start" transform="translate(4,2.8409090909090935)" style="display: inline;">PDGFA/B-inhibition, VGFR1/2/3-inhibition</text><line x1="0" x2="0" y1="0" y2="5.681818181818187" style="display: inline; stroke: rgb(0, 0, 0);"/><rect x="-5" y="-5" width="10" height="10.681818181818187" style="fill: none; visibility: hidden; pointer-events: all;"/></g><g class="node" transform="translate(619.3333333333334,75)"><title>AR-inhibition</title><text dy=".35em" text-anchor="start" transform="translate(-4,-10)" style="display: inline;">AR-inhibition</text><line x1="0" x2="0" y1="-5" y2="5.681818181818187" style="display: inline; stroke: rgb(0, 0, 0);"/><rect x="-5" y="-5" width="10" height="10.681818181818187" style="fill: none; visibility: hidden; pointer-events: all;"/></g><g class="node" transform="translate(619.3333333333334,101.36363636363635)"><title>CDK4/6-inhibition</title><text dy=".35em" text-anchor="start" transform="translate(4,2.8409090909090935)" style="display: inline;">CDK4/6-inhibition</text><line x1="0" x2="0" y1="0" y2="5.681818181818187" style="display: inline; stroke: rgb(0, 0, 0);"/><rect x="-5" y="-5" width="10" height="10.681818181818187" style="fill: none; visibility: hidden; pointer-events: all;"/></g><g class="node" transform="translate(619.3333333333334,510.6818181818183)"><title>TNFα-inhibition</title><text dy=".35em" text-anchor="start" transform="translate(4,5.681818181818159)" style="display: inline;">TNFα-inhibition</text><line x1="0" x2="0" y1="0" y2="11.363636363636317" style="display: inline; stroke: rgb(0, 0, 0);"/><rect x="-5" y="-5" width="10" height="16.363636363636317" style="fill: none; visibility: hidden; pointer-events: all;"/></g><g class="node" transform="translate(619.3333333333334,425.68181818181824)"><title>ErbB1-inhibition</title><text dy=".35em" text-anchor="start" transform="translate(4,17.04545454545456)" style="display: inline;">ErbB1-inhibition</text><line x1="0" x2="0" y1="0" y2="34.09090909090912" style="display: inline; stroke: rgb(0, 0, 0);"/><rect x="-5" y="-5" width="10" height="39.09090909090912" style="fill: none; visibility: hidden; pointer-events: all;"/></g><g class="node" transform="translate(619.3333333333334,203.18181818181816)"><title>c-MET-inhibition, VEGFR1/2/3-inhibition</title><text dy=".35em" text-anchor="start" transform="translate(4,2.8409090909090935)" style="display: inline;">c-MET-inhibition, VEGFR1/2/3-inhibition</text><line x1="0" x2="0" y1="0" y2="5.681818181818187" style="display: inline; stroke: rgb(0, 0, 0);"/><rect x="-5" y="-5" width="10" height="10.681818181818187" style="fill: none; visibility: hidden; pointer-events: all;"/></g><g class="node" transform="translate(0,663.6363636363636)"><title>Immunosuppressants</title><text dy=".35em" text-anchor="end" transform="translate(-4,5.681818181818187)" style="display: inline;">Immunosuppressants</text><line x1="0" x2="0" y1="0" y2="11.363636363636374" style="display: inline; stroke: rgb(0, 0, 0);"/><rect x="-5" y="-5" width="10" height="16.363636363636374" style="fill: none; visibility: hidden; pointer-events: all;"/></g><g class="node" transform="translate(619.3333333333334,159.77272727272725)"><title>GnRH-promotion, LHRH-promotion</title><text dy=".35em" text-anchor="start" transform="translate(4,2.8409090909090935)" style="display: inline;">GnRH-promotion, LHRH-promotion</text><line x1="0" x2="0" y1="0" y2="5.681818181818187" style="display: inline; stroke: rgb(0, 0, 0);"/><rect x="-5" y="-5" width="10" height="10.681818181818187" style="fill: none; visibility: hidden; pointer-events: all;"/></g><g class="node" transform="translate(929,630.5194805194806)"><title>Ovary</title><text dy=".35em" text-anchor="start" transform="translate(4,11.363636363636374)" style="display: inline;">Ovary</text><line x1="0" x2="0" y1="0" y2="22.727272727272748" style="display: inline; stroke: rgb(0, 0, 0);"/><rect x="-5" y="-5" width="10" height="27.727272727272748" style="fill: none; visibility: hidden; pointer-events: all;"/></g><g class="node" transform="translate(619.3333333333334,529.5454545454546)"><title>PD-1-inhibition</title><text dy=".35em" text-anchor="start" transform="translate(4,11.363636363636374)" style="display: inline;">PD-1-inhibition</text><line x1="0" x2="0" y1="0" y2="22.727272727272748" style="display: inline; stroke: rgb(0, 0, 0);"/><rect x="-5" y="-5" width="10" height="27.727272727272748" style="fill: none; visibility: hidden; pointer-events: all;"/></g><g class="node" transform="translate(619.3333333333334,172.95454545454544)"><title>PARP1-inhibition</title><text dy=".35em" text-anchor="start" transform="translate(4,11.36363636363636)" style="display: inline;">PARP1-inhibition</text><line x1="0" x2="0" y1="0" y2="22.72727272727272" style="display: inline; stroke: rgb(0, 0, 0);"/><rect x="-5" y="-5" width="10" height="27.72727272727272" style="fill: none; visibility: hidden; pointer-events: all;"/></g><g class="node" transform="translate(619.3333333333334,620.2272727272727)"><title>VEGFR2-inhibition</title><text dy=".35em" text-anchor="start" transform="translate(4,8.522727272727252)" style="display: inline;">VEGFR2-inhibition</text><line x1="0" x2="0" y1="0" y2="17.045454545454504" style="display: inline; stroke: rgb(0, 0, 0);"/><rect x="-5" y="-5" width="10" height="22.045454545454504" style="fill: none; visibility: hidden; pointer-events: all;"/></g><g class="node" transform="translate(619.3333333333334,240.90909090909088)"><title>CAIX-inhibition</title><text dy=".35em" text-anchor="start" transform="translate(4,2.8409090909090935)" style="display: inline;">CAIX-inhibition</text><line x1="0" x2="0" y1="0" y2="5.681818181818187" style="display: inline; stroke: rgb(0, 0, 0);"/><rect x="-5" y="-5" width="10" height="10.681818181818187" style="fill: none; visibility: hidden; pointer-events: all;"/></g><g class="node" transform="translate(619.3333333333334,595.6818181818182)"><title>Thymidylate synthase-inhibition</title><text dy=".35em" text-anchor="start" transform="translate(4,8.522727272727252)" style="display: inline;">Thymidylate synthase-inhibition</text><line x1="0" x2="0" y1="0" y2="17.045454545454504" style="display: inline; stroke: rgb(0, 0, 0);"/><rect x="-5" y="-5" width="10" height="22.045454545454504" style="fill: none; visibility: hidden; pointer-events: all;"/></g><g class="node" transform="translate(619.3333333333334,354.0909090909091)"><title>BRAF-inhibition</title><text dy=".35em" text-anchor="start" transform="translate(4,2.8409090909090935)" style="display: inline;">BRAF-inhibition</text><line x1="0" x2="0" y1="0" y2="5.681818181818187" style="display: inline; stroke: rgb(0, 0, 0);"/><rect x="-5" y="-5" width="10" height="10.681818181818187" style="fill: none; visibility: hidden; pointer-events: all;"/></g><g class="node" transform="translate(619.3333333333334,406.81818181818187)"><title>ALK-inhibition</title><text dy=".35em" text-anchor="start" transform="translate(4,5.681818181818187)" style="display: inline;">ALK-inhibition</text><line x1="0" x2="0" y1="0" y2="11.363636363636374" style="display: inline; stroke: rgb(0, 0, 0);"/><rect x="-5" y="-5" width="10" height="16.363636363636374" style="fill: none; visibility: hidden; pointer-events: all;"/></g><g class="node" transform="translate(309.6666666666667,101.13636363636363)"><title>Other antagonist</title><text dy=".35em" text-anchor="start" transform="translate(-4,-10)" style="display: inline;">Other antagonist</text><line x1="0" x2="0" y1="-5" y2="5.681818181818187" style="display: inline; stroke: rgb(0, 0, 0);"/><rect x="-5" y="-5" width="10" height="10.681818181818187" style="fill: none; visibility: hidden; pointer-events: all;"/></g><g class="node" transform="translate(619.3333333333334,280.45454545454544)"><title>mTOR-inhibition</title><text dy=".35em" text-anchor="start" transform="translate(4,14.204545454545467)" style="display: inline;">mTOR-inhibition</text><line x1="0" x2="0" y1="0" y2="28.409090909090935" style="display: inline; stroke: rgb(0, 0, 0);"/><rect x="-5" y="-5" width="10" height="33.409090909090935" style="fill: none; visibility: hidden; pointer-events: all;"/></g><g class="node" transform="translate(929,374.99999999999994)"><title>Lung</title><text dy=".35em" text-anchor="start" transform="translate(4,31.25)" style="display: inline;">Lung</text><line x1="0" x2="0" y1="0" y2="62.5" style="display: inline; stroke: rgb(0, 0, 0);"/><rect x="-5" y="-5" width="10" height="67.5" style="fill: none; visibility: hidden; pointer-events: all;"/></g><g class="node" transform="translate(929,175.3246753246753)"><title>Thyroid</title><text dy=".35em" text-anchor="start" transform="translate(4,5.681818181818187)" style="display: inline;">Thyroid</text><line x1="0" x2="0" y1="0" y2="11.363636363636374" style="display: inline; stroke: rgb(0, 0, 0);"/><rect x="-5" y="-5" width="10" height="16.363636363636374" style="fill: none; visibility: hidden; pointer-events: all;"/></g><g class="node" transform="translate(309.6666666666667,153.40909090909088)"><title>Gonadotropin analogue</title><text dy=".35em" text-anchor="start" transform="translate(-4,-10)" style="display: inline;">Gonadotropin analogue</text><line x1="0" x2="0" y1="-5" y2="5.681818181818187" style="display: inline; stroke: rgb(0, 0, 0);"/><rect x="-5" y="-5" width="10" height="10.681818181818187" style="fill: none; visibility: hidden; pointer-events: all;"/></g><g class="node" transform="translate(309.6666666666667,75)"><title>Anti-androgens</title><text dy=".35em" text-anchor="start" transform="translate(-4,-10)" style="display: inline;">Anti-androgens</text><line x1="0" x2="0" y1="-5" y2="5.681818181818187" style="display: inline; stroke: rgb(0, 0, 0);"/><rect x="-5" y="-5" width="10" height="10.681818181818187" style="fill: none; visibility: hidden; pointer-events: all;"/></g><g class="node" transform="translate(929,291.72077922077915)"><title>Pancreas</title><text dy=".35em" text-anchor="start" transform="translate(4,8.52272727272728)" style="display: inline;">Pancreas</text><line x1="0" x2="0" y1="0" y2="17.04545454545456" style="display: inline; stroke: rgb(0, 0, 0);"/><rect x="-5" y="-5" width="10" height="22.04545454545456" style="fill: none; visibility: hidden; pointer-events: all;"/></g><g class="node" transform="translate(619.3333333333334,644.7727272727273)"><title>Bcr-Abl-inhibition</title><text dy=".35em" text-anchor="start" transform="translate(4,2.840909090909065)" style="display: inline;">Bcr-Abl-inhibition</text><line x1="0" x2="0" y1="0" y2="5.68181818181813" style="display: inline; stroke: rgb(0, 0, 0);"/><rect x="-5" y="-5" width="10" height="10.68181818181813" style="fill: none; visibility: hidden; pointer-events: all;"/></g><g class="node" transform="translate(929,224.51298701298697)"><title>Kidney</title><text dy=".35em" text-anchor="start" transform="translate(4,25.568181818181813)" style="display: inline;">Kidney</text><line x1="0" x2="0" y1="0" y2="51.136363636363626" style="display: inline; stroke: rgb(0, 0, 0);"/><rect x="-5" y="-5" width="10" height="56.136363636363626" style="fill: none; visibility: hidden; pointer-events: all;"/></g></g><g class="slice-titles"/></g></svg>